<?xml version="1.0" encoding="utf-8"?>
<!-- Generator: Adobe Illustrator 16.0.0, SVG Export Plug-In . SVG Version: 6.00 Build 0)  -->
<!DOCTYPE svg PUBLIC "-//W3C//DTD SVG 1.1//EN" "http://www.w3.org/Graphics/SVG/1.1/DTD/svg11.dtd">
<svg version="1.1" id="Layer_1" xmlns="http://www.w3.org/2000/svg" xmlns:xlink="http://www.w3.org/1999/xlink" x="0px" y="0px"
	 width="60.508px" height="99.002px" viewBox="0 -19.751 60.508 99.002" enable-background="new 0 -19.751 60.508 99.002"
	 xml:space="preserve">
<g>
	<defs>
		<rect id="SVGID_1_" x="28.254" y="-19.751" width="4" height="20.346"/>
	</defs>
	<clipPath id="SVGID_2_">
		<use xlink:href="#SVGID_1_"  overflow="visible"/>
	</clipPath>
	<line clip-path="url(#SVGID_2_)" fill="none" stroke="#210000" x1="30.254" y1="0.594" x2="30.254" y2="-17.752"/>
</g>
<rect x="28.254" y="-19.752" fill="#210000" width="4" height="4"/>
<g>
	<defs>
		<polygon id="SVGID_3_" points="34.27,58.827 30.254,78.521 26.238,58.827 		"/>
	</defs>
	<clipPath id="SVGID_4_">
		<use xlink:href="#SVGID_3_"  overflow="visible"/>
	</clipPath>
	
		<linearGradient id="SVGID_5_" gradientUnits="userSpaceOnUse" x1="-31.4702" y1="94.1455" x2="-30.4702" y2="94.1455" gradientTransform="matrix(13.8637 -13.8637 -13.8637 -13.8637 1764.824 944.5187)">
		<stop  offset="0" style="stop-color:#898452"/>
		<stop  offset="0.0219" style="stop-color:#898452"/>
		<stop  offset="0.6512" style="stop-color:#F4EEC9"/>
		<stop  offset="1" style="stop-color:#D1C778"/>
	</linearGradient>
	<polygon clip-path="url(#SVGID_4_)" fill="url(#SVGID_5_)" points="16.391,68.673 30.254,54.812 44.116,68.673 30.254,82.536 	"/>
</g>
<g>
	<defs>
		<rect id="SVGID_6_" x="-0.246" width="61" height="78.521"/>
	</defs>
	<clipPath id="SVGID_7_">
		<use xlink:href="#SVGID_6_"  overflow="visible"/>
	</clipPath>
	<path clip-path="url(#SVGID_7_)" fill="none" d="M30.254,58.501c15.463,0,28-12.537,28-28c0-15.465-12.537-28-28-28
		c-15.465,0-28,12.536-28,28C2.254,45.964,14.79,58.501,30.254,58.501"/>
	
		<linearGradient id="SVGID_8_" gradientUnits="userSpaceOnUse" x1="-32.8286" y1="94.6084" x2="-31.8286" y2="94.6084" gradientTransform="matrix(59 -59 -59 -59 7519.5527 3705.0679)">
		<stop  offset="0" style="stop-color:#898452"/>
		<stop  offset="0.0219" style="stop-color:#898452"/>
		<stop  offset="0.6512" style="stop-color:#F4EEC9"/>
		<stop  offset="1" style="stop-color:#D1C778"/>
	</linearGradient>
	<path clip-path="url(#SVGID_7_)" fill="url(#SVGID_8_)" d="M30.254,58.501v-2c14.358-0.027,25.974-11.643,26-26
		c-0.026-14.359-11.642-25.975-26-26c-14.359,0.026-25.975,11.641-26,26c0.026,14.358,11.641,25.973,26,26V58.501v2
		c-16.57-0.002-29.999-13.432-30-30l0,0c0.001-16.57,13.43-29.999,30-30c16.568,0.001,29.998,13.431,30,30
		c-0.002,16.569-13.432,29.999-30,30V58.501z"/>
</g>
<g>
	<path d="M17.876,16.915c0.094-0.224,0.168-0.458,0.284-0.668c0.384-0.685,0.904-1.118,1.768-1.084
		c1.149,0.044,2.303,0.011,3.454,0.011c0.147,0,0.298,0,0.443,0c0.026,0.427,0.005,0.816,0.087,1.183
		c0.285,1.264,1.337,2.062,2.734,2.08c1.398,0.018,2.795,0.005,4.191,0.005c0.754,0,1.508-0.044,2.254,0.008
		c1.951,0.137,3.359-1.187,3.178-3.322c1.398,0.051,2.801,0.019,4.176,0.177c1.127,0.13,1.787,1,1.789,2.117
		c0.014,5.328,0.008,10.656,0.006,15.98c0,0.074-0.021,0.146-0.021,0.166c-0.902,0.088-1.768,0.174-2.672,0.264
		c0-4.182,0-8.396,0-12.644c-6.33,0-12.611,0-18.931,0c0,7.192,0,14.382,0,21.632c4.147,0,8.282,0,12.37,0
		c0.209,0.94,0.404,1.817,0.609,2.74c-0.148,0-0.311,0-0.471,0c-4.189,0-8.381-0.021-12.572,0.016
		c-1.335,0.012-2.245-0.471-2.677-1.756C17.876,34.849,17.876,25.884,17.876,16.915z"/>
	<path d="M40.911,49.347c-0.73-0.219-1.49-0.359-2.18-0.67c-2.852-1.287-4.453-4.334-3.988-7.479
		c0.443-3.019,2.904-5.441,5.957-5.875c3.881-0.547,7.373,2.074,7.969,5.979c0.012,0.074,0.051,0.143,0.074,0.215
		c0,0.521,0,1.043,0,1.564c-0.023,0.072-0.062,0.141-0.074,0.215c-0.471,2.795-2.051,4.676-4.689,5.67
		c-0.479,0.18-1,0.258-1.5,0.383C41.954,49.347,41.432,49.347,40.911,49.347z M41.036,43.515c-0.633-0.502-1.229-0.982-1.83-1.453
		c-0.562-0.436-1.197-0.385-1.596,0.105c-0.387,0.48-0.293,1.139,0.25,1.578c0.832,0.682,1.67,1.354,2.516,2.018
		c0.627,0.492,1.17,0.441,1.693-0.148c1.379-1.547,2.752-3.098,4.125-4.647c0.49-0.555,0.496-1.207,0.021-1.637
		c-0.492-0.443-1.105-0.382-1.617,0.182c-0.453,0.5-0.896,1.011-1.346,1.517C42.52,41.847,41.786,42.671,41.036,43.515z"/>
	<path d="M30.501,11.386c0.935,0.358,1.45,1.001,1.485,2.038c0.016,0.415,0.336,0.639,0.754,0.663
		c0.289,0.017,0.582-0.004,0.873,0.013c0.959,0.056,1.607,0.748,1.59,1.676c-0.021,0.885-0.711,1.578-1.641,1.583
		c-2.33,0.014-4.662,0.014-6.994,0c-0.951-0.005-1.646-0.71-1.656-1.621c-0.012-0.902,0.677-1.596,1.632-1.641
		c0.274-0.013,0.554,0.008,0.827-0.011c0.451-0.031,0.777-0.3,0.788-0.748c0.024-1.039,0.583-1.631,1.512-1.953
		C29.95,11.386,30.225,11.386,30.501,11.386z M30.076,12.481c-0.448-0.007-0.821,0.356-0.823,0.801c0,0.426,0.348,0.787,0.775,0.805
		c0.451,0.019,0.828-0.331,0.84-0.779C30.881,12.858,30.526,12.487,30.076,12.481z"/>
	<path d="M29.762,25.489c-2.24,0-4.48,0-6.722,0c-0.675,0-0.832-0.151-0.834-0.788c-0.003-0.679,0.162-0.854,0.825-0.854
		c4.511-0.001,9.02-0.006,13.529,0.013c0.25,0.001,0.658,0.15,0.717,0.323c0.105,0.318,0.066,0.724-0.035,1.055
		c-0.045,0.137-0.406,0.24-0.627,0.241C34.329,25.496,32.045,25.489,29.762,25.489z"/>
	<path d="M29.772,30.372c-2.254,0-4.51,0-6.767-0.002c-0.646,0-0.8-0.16-0.799-0.821c0-0.65,0.159-0.813,0.812-0.813
		c4.512,0,9.02-0.006,13.529,0.014c0.254,0,0.666,0.137,0.725,0.307c0.111,0.316,0.074,0.725-0.023,1.055
		c-0.041,0.137-0.404,0.25-0.621,0.25C34.34,30.378,32.057,30.37,29.772,30.372z"/>
	<path d="M28.43,34.7c-1.826,0-3.652,0.002-5.479,0c-0.584-0.002-0.74-0.17-0.744-0.78c-0.003-0.662,0.144-0.845,0.733-0.847
		c3.668-0.004,7.336-0.004,11,0c0.594,0.002,0.723,0.181,0.713,0.904c-0.006,0.57-0.158,0.723-0.75,0.723
		C32.081,34.702,30.255,34.7,28.43,34.7z"/>
	<path d="M27.921,39.586c-1.642,0-3.282,0.002-4.926-0.002c-0.63,0-0.787-0.158-0.789-0.783c-0.003-0.67,0.157-0.853,0.78-0.853
		c3.269-0.002,6.537-0.002,9.805,0c0.637,0,0.781,0.164,0.781,0.841c-0.002,0.646-0.145,0.795-0.773,0.795
		C31.176,39.588,29.548,39.586,27.921,39.586z"/>
</g>
</svg>
