<?xml version="1.0" encoding="utf-8"?>
<!-- Generator: Adobe Illustrator 16.0.0, SVG Export Plug-In . SVG Version: 6.00 Build 0)  -->
<!DOCTYPE svg PUBLIC "-//W3C//DTD SVG 1.1//EN" "http://www.w3.org/Graphics/SVG/1.1/DTD/svg11.dtd">
<svg version="1.1" id="Layer_1" xmlns="http://www.w3.org/2000/svg" xmlns:xlink="http://www.w3.org/1999/xlink" x="0px" y="0px"
	 width="60.508px" height="161.109px" viewBox="0 -81.858 60.508 161.109" enable-background="new 0 -81.858 60.508 161.109"
	 xml:space="preserve">
<g>
	<defs>
		<rect id="SVGID_1_" x="28.254" y="-81.858" width="4" height="82.346"/>
	</defs>
	<clipPath id="SVGID_2_">
		<use xlink:href="#SVGID_1_"  overflow="visible"/>
	</clipPath>
	<line clip-path="url(#SVGID_2_)" fill="none" stroke="#210000" x1="30.254" y1="0.488" x2="30.254" y2="-79.859"/>
</g>
<rect x="28.254" y="-81.859" fill="#210000" width="4" height="4"/>
<g>
	<defs>
		<polygon id="SVGID_3_" points="34.27,58.827 30.254,78.521 26.238,58.827 		"/>
	</defs>
	<clipPath id="SVGID_4_">
		<use xlink:href="#SVGID_3_"  overflow="visible"/>
	</clipPath>
	
		<linearGradient id="SVGID_5_" gradientUnits="userSpaceOnUse" x1="-31.4702" y1="94.1455" x2="-30.4702" y2="94.1455" gradientTransform="matrix(13.8637 -13.8637 -13.8637 -13.8637 1764.824 944.5187)">
		<stop  offset="0" style="stop-color:#898452"/>
		<stop  offset="0.0219" style="stop-color:#898452"/>
		<stop  offset="0.6512" style="stop-color:#F4EEC9"/>
		<stop  offset="1" style="stop-color:#D1C778"/>
	</linearGradient>
	<polygon clip-path="url(#SVGID_4_)" fill="url(#SVGID_5_)" points="16.391,68.673 30.254,54.812 44.116,68.673 30.254,82.536 	"/>
</g>
<g>
	<defs>
		<rect id="SVGID_6_" x="-0.246" width="61" height="78.521"/>
	</defs>
	<clipPath id="SVGID_7_">
		<use xlink:href="#SVGID_6_"  overflow="visible"/>
	</clipPath>
	<path clip-path="url(#SVGID_7_)" fill="none" d="M30.254,58.501c15.463,0,28-12.537,28-28c0-15.465-12.537-28-28-28
		c-15.465,0-28,12.536-28,28C2.254,45.964,14.79,58.501,30.254,58.501"/>
	
		<linearGradient id="SVGID_8_" gradientUnits="userSpaceOnUse" x1="-32.8286" y1="94.6084" x2="-31.8286" y2="94.6084" gradientTransform="matrix(59 -59 -59 -59 7519.5527 3705.0679)">
		<stop  offset="0" style="stop-color:#898452"/>
		<stop  offset="0.0219" style="stop-color:#898452"/>
		<stop  offset="0.6512" style="stop-color:#F4EEC9"/>
		<stop  offset="1" style="stop-color:#D1C778"/>
	</linearGradient>
	<path clip-path="url(#SVGID_7_)" fill="url(#SVGID_8_)" d="M30.254,58.501v-2c14.358-0.027,25.974-11.643,26-26
		c-0.026-14.359-11.642-25.975-26-26c-14.359,0.026-25.975,11.641-26,26c0.026,14.358,11.641,25.973,26,26V58.501v2
		c-16.57-0.002-29.999-13.432-30-30l0,0c0.001-16.57,13.43-29.999,30-30c16.568,0.001,29.998,13.431,30,30
		c-0.002,16.569-13.432,29.999-30,30V58.501z"/>
</g>
<g>
	<path d="M32.083,33.931c-0.037-1.121,0.408-2.057,1.119-2.889c0.055-0.063,0.109-0.127,0.174-0.187
		c1.408-1.274,1.666-2.829,1.053-4.554c-0.342-0.966-0.781-1.9-1.188-2.844c-0.514-1.186-0.717-2.402-0.373-3.671
		c0.307-1.132,1.086-1.715,2.225-1.83c1.049-0.106,1.832,0.333,2.359,1.238c0.516,0.885,0.732,1.87,0.832,2.863
		c0.254,2.579,1.014,4.977,2.266,7.247c0.688,1.253,0.979,2.611,0.467,4.031c-0.086,0.234-0.178,0.488-0.334,0.679
		c-1.512,1.819-3.34,3.084-5.811,3.067c-0.49-0.004-1.01-0.149-1.463-0.346c-0.975-0.418-1.205-1.309-1.291-2.26
		C32.102,34.298,32.094,34.114,32.083,33.931z"/>
	<path d="M28.296,20.318c-0.024,1.025-0.248,1.843-0.62,2.633c-0.498,1.054-1.033,2.098-1.43,3.192
		c-0.523,1.447-0.229,2.765,0.878,3.89c0.836,0.854,1.418,1.863,1.323,3.091c-0.055,0.688-0.168,1.439-0.502,2.019
		c-0.59,1.021-1.674,1.17-2.754,1.078c-2.178-0.188-3.83-1.349-5.174-2.974c-0.774-0.938-0.842-2.067-0.506-3.208
		c0.164-0.562,0.369-1.126,0.656-1.632c0.93-1.635,1.799-3.287,2.164-5.156c0.202-1.036,0.381-2.078,0.645-3.098
		c0.14-0.536,0.383-1.064,0.674-1.538c0.578-0.94,1.479-1.258,2.643-1.021c1.033,0.209,1.721,0.903,1.912,1.952
		C28.26,19.848,28.277,20.159,28.296,20.318z"/>
	<path d="M41.936,42.308c0.02-0.66,0.324-1.658,0.898-2.574c0.441-0.703,0.943-1.379,1.314-2.117
		c0.355-0.709,0.627-1.471,0.848-2.231c0.23-0.798,0.002-1.562-0.385-2.277c-0.252-0.471-0.514-0.938-0.719-1.431
		c-0.555-1.334-0.232-2.617,0.363-3.831c0.414-0.84,1.596-1.209,2.635-0.967c2.117,0.492,3.418,1.938,4.354,3.771
		c0.324,0.632,0.365,1.364,0.189,2.071c-0.201,0.821-0.453,1.635-0.982,2.313c-1.553,1.992-2.658,4.197-3.352,6.633
		c-0.242,0.854-0.637,1.691-1.1,2.453c-0.701,1.152-1.797,1.426-2.914,0.84C42.192,44.491,41.918,43.681,41.936,42.308z"/>
	<path d="M13.752,27.661c0.995,0.058,1.633,0.328,2.005,1.004c0.291,0.525,0.55,1.076,0.761,1.639
		c0.307,0.82,0.229,1.682-0.117,2.439c-0.922,2.02-0.248,3.639,1.119,5.123c0.562,0.612,1.16,1.194,1.722,1.812
		c0.761,0.832,1.241,1.808,1.377,2.935c0.112,0.942-0.213,1.688-1.038,2.19c-0.812,0.496-1.661,0.504-2.398-0.115
		c-0.508-0.43-0.938-0.971-1.33-1.517c-0.385-0.534-0.695-1.127-1.006-1.713c-0.838-1.588-1.902-2.996-3.244-4.192
		c-0.8-0.72-1.562-1.459-2.048-2.449c-0.5-1.021-0.591-2.041-0.151-3.099c0.642-1.55,1.513-2.913,3.102-3.646
		C12.967,27.858,13.477,27.749,13.752,27.661z"/>
	<path d="M32.778,38.581c-0.012-0.979,0.396-1.443,1.154-1.31c0.27,0.048,0.543,0.233,0.74,0.433
		c0.465,0.469,0.748,1.045,0.861,1.703c0.158,0.922-0.523,1.537-1.426,1.282c-0.736-0.209-1.23-0.896-1.316-1.829
		C32.782,38.747,32.782,38.636,32.778,38.581z"/>
	<path d="M27.617,37.497c-0.014,1.182-0.559,2.028-1.379,2.254c-0.94,0.258-1.604-0.344-1.422-1.301
		c0.125-0.656,0.47-1.199,0.941-1.66c0.375-0.363,0.814-0.502,1.312-0.283C27.551,36.718,27.586,37.163,27.617,37.497z"/>
	<path d="M45.069,25.531c0.043-0.618,0.215-1.205,0.637-1.663c0.215-0.235,0.525-0.438,0.834-0.524
		c0.822-0.233,1.42,0.404,1.203,1.24c-0.189,0.71-0.605,1.267-1.166,1.72c-0.318,0.256-0.676,0.355-1.062,0.159
		C45.133,26.269,45.047,25.925,45.069,25.531z"/>
	<path d="M12.491,24.385c0.255,0.105,0.536,0.17,0.76,0.321c0.591,0.395,0.922,0.977,1.065,1.665c0.07,0.335,0.031,0.65-0.264,0.878
		c-0.312,0.238-0.648,0.255-0.998,0.103c-0.67-0.293-1.188-0.761-1.523-1.409C11.123,25.15,11.573,24.445,12.491,24.385z"/>
	<path d="M37.887,38.938c-0.086,0.576-0.256,0.888-0.635,1.031c-0.381,0.144-0.781,0.004-1.104-0.402
		c-0.355-0.454-0.467-0.985-0.266-1.51c0.1-0.252,0.361-0.517,0.611-0.617c0.352-0.146,0.723,0.039,0.914,0.354
		C37.62,38.146,37.731,38.556,37.887,38.938z"/>
	<path d="M24.566,37.778c-0.026,0.416-0.272,0.866-0.785,1.145c-0.5,0.266-1.092,0.023-1.172-0.535
		c-0.055-0.369,0.011-0.783,0.127-1.145c0.179-0.562,0.691-0.853,1.166-0.754C24.321,36.575,24.585,37.02,24.566,37.778z"/>
	<path d="M49.788,25.159c-0.24,0.5-0.412,0.959-0.668,1.365c-0.184,0.289-0.527,0.393-0.867,0.297
		c-0.344-0.097-0.461-0.397-0.488-0.722c-0.057-0.653,0.146-1.216,0.725-1.555c0.197-0.117,0.543-0.164,0.732-0.07
		C49.444,24.586,49.577,24.888,49.788,25.159z"/>
	<path d="M11.768,27.413c0.006,0.682-0.514,1.021-1.111,0.701c-0.562-0.302-0.858-0.814-0.919-1.435
		c-0.053-0.549,0.422-0.894,0.947-0.732C11.305,26.136,11.766,26.76,11.768,27.413z"/>
	<path d="M37.874,37.415c-0.002-0.474,0.252-0.74,0.711-0.748c0.531-0.01,0.969,0.463,0.977,1.055
		c0.004,0.457-0.32,0.867-0.689,0.869C38.377,38.591,37.875,38.001,37.874,37.415z"/>
	<path d="M22.539,36.398c0.002,0.595-0.491,1.146-1.02,1.142c-0.387-0.004-0.678-0.355-0.676-0.814
		c0.002-0.557,0.451-1.051,0.951-1.053C22.26,35.669,22.538,35.941,22.539,36.398z"/>
	<path d="M49.391,27.139c0.025-0.576,0.543-1.114,1.033-1.076c0.352,0.026,0.531,0.305,0.512,0.782
		c-0.023,0.573-0.438,1.029-0.918,1.012C49.588,27.842,49.37,27.591,49.391,27.139z"/>
	<path d="M10.407,28.887c-0.007,0.344-0.342,0.642-0.713,0.638c-0.453-0.008-0.948-0.57-0.948-1.08c0-0.416,0.233-0.664,0.606-0.646
		C9.863,27.823,10.417,28.394,10.407,28.887z"/>
	<path d="M40.213,37.271c-0.422-0.017-0.771-0.433-0.756-0.901c0.014-0.371,0.262-0.638,0.594-0.631
		c0.396,0.006,0.797,0.459,0.789,0.893C40.833,37.009,40.561,37.284,40.213,37.271z"/>
	<path d="M21.005,35.384c-0.011,0.438-0.43,0.869-0.823,0.854c-0.326-0.012-0.576-0.301-0.57-0.658
		c0.007-0.44,0.42-0.869,0.824-0.852C20.76,34.741,21.016,35.034,21.005,35.384z"/>
	<path d="M51.868,28.131c-0.014,0.444-0.395,0.842-0.785,0.823c-0.309-0.016-0.508-0.269-0.49-0.613
		c0.023-0.43,0.424-0.848,0.799-0.83C51.692,27.524,51.877,27.764,51.868,28.131z"/>
	<path d="M8.953,30.758c-0.46,0.011-0.864-0.377-0.864-0.799c0-0.331,0.162-0.542,0.499-0.563c0.389-0.026,0.812,0.405,0.82,0.814
		C9.415,30.545,9.261,30.739,8.953,30.758z"/>
	<path d="M19.271,33.431c0.307-0.01,0.545,0.229,0.559,0.559c0.016,0.404-0.27,0.732-0.637,0.738
		c-0.336,0.004-0.563-0.211-0.567-0.535C18.621,33.833,18.954,33.444,19.271,33.431z"/>
	<path d="M41.208,34.45c0.312-0.002,0.65,0.381,0.66,0.752c0.008,0.334-0.25,0.604-0.57,0.598c-0.326-0.01-0.621-0.35-0.631-0.727
		C40.661,34.72,40.891,34.452,41.208,34.45z"/>
	<path d="M51.434,29.928c-0.006-0.468,0.281-0.817,0.607-0.813c0.32,0.004,0.484,0.188,0.498,0.5
		c0.016,0.347-0.34,0.787-0.646,0.771C51.575,30.367,51.45,30.14,51.434,29.928z"/>
	<path d="M8.881,31.927c-0.101,0.078-0.26,0.293-0.457,0.334c-0.32,0.068-0.731-0.355-0.717-0.682
		c0.013-0.31,0.18-0.498,0.502-0.504C8.526,31.069,8.874,31.438,8.881,31.927z"/>
</g>
</svg>
