<?xml version="1.0" encoding="utf-8"?>
<!-- Generator: Adobe Illustrator 16.0.0, SVG Export Plug-In . SVG Version: 6.00 Build 0)  -->
<!DOCTYPE svg PUBLIC "-//W3C//DTD SVG 1.1//EN" "http://www.w3.org/Graphics/SVG/1.1/DTD/svg11.dtd">
<svg version="1.1" id="Layer_1" xmlns="http://www.w3.org/2000/svg" xmlns:xlink="http://www.w3.org/1999/xlink" x="0px" y="0px"
	 width="60.508px" height="149.75px" viewBox="0 -19.751 60.508 149.75" enable-background="new 0 -19.751 60.508 149.75"
	 xml:space="preserve">
<g>
	<defs>
		<rect id="SVGID_1_" x="28.254" y="59.501" width="4" height="70.498"/>
	</defs>
	<clipPath id="SVGID_2_">
		<use xlink:href="#SVGID_1_"  overflow="visible"/>
	</clipPath>
	<line clip-path="url(#SVGID_2_)" fill="none" stroke="#210000" x1="30.254" y1="127.999" x2="30.254" y2="59.501"/>
</g>
<rect x="28.254" y="125.999" fill="#210000" width="4" height="4"/>
<g>
	<defs>
		<polygon id="SVGID_3_" points="26.238,0.105 30.253,-19.588 34.27,0.105 		"/>
	</defs>
	<clipPath id="SVGID_4_">
		<use xlink:href="#SVGID_3_"  overflow="visible"/>
	</clipPath>
	
		<linearGradient id="SVGID_5_" gradientUnits="userSpaceOnUse" x1="-34.2983" y1="91.3184" x2="-33.2983" y2="91.3184" gradientTransform="matrix(-13.8637 13.8637 13.8637 13.8637 -1704.3162 -807.173)">
		<stop  offset="0" style="stop-color:#898452"/>
		<stop  offset="0.0219" style="stop-color:#898452"/>
		<stop  offset="0.6512" style="stop-color:#F4EEC9"/>
		<stop  offset="1" style="stop-color:#D1C778"/>
	</linearGradient>
	<polygon clip-path="url(#SVGID_4_)" fill="url(#SVGID_5_)" points="44.117,-9.741 30.253,4.121 16.392,-9.741 30.253,-23.604 	"/>
</g>
<g>
	<defs>
		<rect id="SVGID_6_" x="-0.246" y="-0.851" width="61" height="78.522"/>
	</defs>
	<clipPath id="SVGID_7_">
		<use xlink:href="#SVGID_6_"  overflow="visible"/>
	</clipPath>
	<path clip-path="url(#SVGID_7_)" fill="none" d="M30.254,57.651c15.463,0,28-12.537,28-28.002s-12.537-28-28-28
		c-15.465,0-28,12.536-28,28S14.79,57.651,30.254,57.651"/>
	
		<linearGradient id="SVGID_8_" gradientUnits="userSpaceOnUse" x1="-32.8213" y1="94.6162" x2="-31.8213" y2="94.6162" gradientTransform="matrix(59 -59 -59 -59 7519.5527 3705.0679)">
		<stop  offset="0" style="stop-color:#898452"/>
		<stop  offset="0.0219" style="stop-color:#898452"/>
		<stop  offset="0.6512" style="stop-color:#F4EEC9"/>
		<stop  offset="1" style="stop-color:#D1C778"/>
	</linearGradient>
	<path clip-path="url(#SVGID_7_)" fill="url(#SVGID_8_)" d="M30.254,57.651v-2c14.358-0.027,25.974-11.643,26-26.002
		c-0.026-14.359-11.642-25.975-26-26c-14.359,0.026-25.975,11.641-26,26c0.026,14.359,11.641,25.975,26,26.002V57.651v2
		c-16.57-0.002-29.999-13.432-30-30.002l0,0c0.001-16.57,13.43-29.999,30-30c16.568,0.001,29.998,13.431,30,30
		c-0.002,16.57-13.432,30-30,30.002V57.651z"/>
</g>
<g>
	<path d="M24.217,44.092c-1.385-0.102-3.315-0.174-5.229-0.4c-1.558-0.188-3.105-0.521-4.457-1.406
		c-0.83-0.545-1.221-1.305-1.266-2.313c-0.056-1.258,0.469-2.202,1.355-3.012c1.466-1.334,3.175-2.261,5.003-2.988
		c0.308-0.121,0.612-0.252,0.92-0.379c0.705-0.289,1.022-0.896,1.162-1.573c0.163-0.79,0.041-1.515-0.528-2.188
		c-1.994-2.364-2.906-5.114-2.545-8.195c0.277-2.369,1.506-4.17,3.799-5.006c2.172-0.791,4.293-0.518,6.18,0.855
		c1.154,0.84,1.855,2.014,2.186,3.428c0.271,1.154,0.3,2.318,0.098,3.453c-0.176,0.99-0.555,1.957-0.943,2.893
		c-0.441,1.068-1.154,1.979-1.883,2.88c-0.455,0.563-0.494,1.285-0.365,1.993c0.037,0.201,0.113,0.396,0.179,0.594
		c0.235,0.713,0.882,0.865,1.479,1.094c2.067,0.787,4.021,1.76,5.665,3.293c1.139,1.062,1.283,2.373,1.023,3.74
		c-0.17,0.891-0.943,1.402-1.746,1.789c-1.039,0.504-2.145,0.752-3.278,0.955C28.951,43.966,26.855,43.975,24.217,44.092z"/>
	<path d="M30.457,31.463c0.7-1.256,1.444-2.412,2.017-3.648c1.025-2.227,1.338-4.572,0.889-7.007
		c-0.354-1.925-1.221-3.55-2.675-4.868c-0.104-0.097-0.154-0.378-0.094-0.514c0.589-1.341,1.571-2.264,2.962-2.767
		c0.854-0.309,1.723-0.405,2.611-0.324c2.197,0.2,4,1.477,4.727,3.784c0.6,1.904,0.422,3.77-0.166,5.634
		c-0.434,1.366-1.104,2.589-2.041,3.676c-0.307,0.354-0.57,1.399-0.152,1.881c0.25,0.287,0.672,0.457,1.045,0.603
		c2.088,0.818,4.127,1.711,5.752,3.329c1.027,1.023,1.279,2.243,0.854,3.585c-0.248,0.781-0.908,1.229-1.629,1.562
		c-0.812,0.375-1.648,0.664-2.547,0.765c-1.102,0.123-2.197,0.28-3.293,0.434c-0.234,0.031-0.355-0.008-0.477-0.258
		c-0.836-1.701-2.193-2.924-3.803-3.846c-1.221-0.699-2.521-1.257-3.782-1.879C30.558,31.554,30.476,31.476,30.457,31.463z"/>
</g>
</svg>
