<svg id="Layer_2" data-name="Layer 2" xmlns="http://www.w3.org/2000/svg" xmlns:xlink="http://www.w3.org/1999/xlink" viewBox="0 0 160 160"><defs><style>.cls-1{fill:none;stroke-miterlimit:10;stroke-width:9px;stroke:url(#linear-gradient);}</style><linearGradient id="linear-gradient" x1="27.41" y1="132.43" x2="132.59" y2="27.26" gradientUnits="userSpaceOnUse"><stop offset="0" stop-color="#707070"/><stop offset="0.5" stop-color="#ebebeb"/><stop offset="1" stop-color="#919394"/></linearGradient></defs><title>МШ Иконки cs6 </title><circle class="cls-1" cx="80" cy="79.84" r="69.87"/><path d="M120.3,108.5V92.4a12.41,12.41,0,0,0,0-22.8V53.5a7.55,7.55,0,0,0-7.5-7.5H45.3a7.55,7.55,0,0,0-7.5,7.5v55a7.55,7.55,0,0,0,7.5,7.5h67.5A7.55,7.55,0,0,0,120.3,108.5Zm-77.5-55A2.48,2.48,0,0,1,45.3,51h61.3V68.5h-3.8a12.5,12.5,0,0,0,0,25h3.8V111H45.3a2.48,2.48,0,0,1-2.5-2.5Zm72.5,15H109V51h3.8a2.48,2.48,0,0,1,2.5,2.5Zm0,21.3H102.8a8.8,8.8,0,0,1,0-17.6h12.5a8.8,8.8,0,0,1,0,17.6Zm-6.2,3.7h6.3v15a2.48,2.48,0,0,1-2.5,2.5h-3.8Z"/><path d="M102.8,87.3a6.34,6.34,0,0,0,6.3-6.3,6.3,6.3,0,1,0-12.6,0A6.34,6.34,0,0,0,102.8,87.3Zm3.8-6.3a3.8,3.8,0,1,1-3.8-3.8A3.8,3.8,0,0,1,106.6,81Z"/><path d="M47.8,107.3h10a1.3,1.3,0,1,0,0-2.6h-10a1.3,1.3,0,0,0,0,2.6Z"/><path d="M47.8,102.3h10a1.3,1.3,0,1,0,0-2.6h-10a1.3,1.3,0,0,0,0,2.6Z"/><path d="M47.8,97.3h10a1.3,1.3,0,1,0,0-2.6h-10a1.3,1.3,0,0,0,0,2.6Z"/></svg>