<?xml version="1.0" encoding="utf-8"?>
<!-- Generator: Adobe Illustrator 16.0.0, SVG Export Plug-In . SVG Version: 6.00 Build 0)  -->
<!DOCTYPE svg PUBLIC "-//W3C//DTD SVG 1.1//EN" "http://www.w3.org/Graphics/SVG/1.1/DTD/svg11.dtd">
<svg version="1.1" id="Layer_1" xmlns="http://www.w3.org/2000/svg" xmlns:xlink="http://www.w3.org/1999/xlink" x="0px" y="0px"
	 width="60.508px" height="145.93px" viewBox="0 -66.679 60.508 145.93" enable-background="new 0 -66.679 60.508 145.93"
	 xml:space="preserve">
<g>
	<defs>
		<rect id="SVGID_1_" x="28.254" y="-66.679" width="4" height="67.346"/>
	</defs>
	<clipPath id="SVGID_2_">
		<use xlink:href="#SVGID_1_"  overflow="visible"/>
	</clipPath>
	<line clip-path="url(#SVGID_2_)" fill="none" stroke="#210000" x1="30.254" y1="0.667" x2="30.254" y2="-64.68"/>
</g>
<rect x="28.254" y="-66.679" fill="#210000" width="4" height="4"/>
<g>
	<defs>
		<polygon id="SVGID_3_" points="34.27,58.827 30.254,78.521 26.238,58.827 		"/>
	</defs>
	<clipPath id="SVGID_4_">
		<use xlink:href="#SVGID_3_"  overflow="visible"/>
	</clipPath>
	
		<linearGradient id="SVGID_5_" gradientUnits="userSpaceOnUse" x1="-31.4702" y1="94.1455" x2="-30.4702" y2="94.1455" gradientTransform="matrix(13.8637 -13.8637 -13.8637 -13.8637 1764.824 944.5187)">
		<stop  offset="0" style="stop-color:#898452"/>
		<stop  offset="0.0219" style="stop-color:#898452"/>
		<stop  offset="0.6512" style="stop-color:#F4EEC9"/>
		<stop  offset="1" style="stop-color:#D1C778"/>
	</linearGradient>
	<polygon clip-path="url(#SVGID_4_)" fill="url(#SVGID_5_)" points="16.391,68.673 30.254,54.812 44.116,68.673 30.254,82.536 	"/>
</g>
<g>
	<defs>
		<rect id="SVGID_6_" x="-0.246" width="61" height="78.521"/>
	</defs>
	<clipPath id="SVGID_7_">
		<use xlink:href="#SVGID_6_"  overflow="visible"/>
	</clipPath>
	<path clip-path="url(#SVGID_7_)" fill="none" d="M30.254,58.501c15.463,0,28-12.537,28-28c0-15.465-12.537-28-28-28
		c-15.465,0-28,12.536-28,28C2.254,45.964,14.79,58.501,30.254,58.501"/>
	
		<linearGradient id="SVGID_8_" gradientUnits="userSpaceOnUse" x1="-32.8286" y1="94.6084" x2="-31.8286" y2="94.6084" gradientTransform="matrix(59 -59 -59 -59 7519.5527 3705.0679)">
		<stop  offset="0" style="stop-color:#898452"/>
		<stop  offset="0.0219" style="stop-color:#898452"/>
		<stop  offset="0.6512" style="stop-color:#F4EEC9"/>
		<stop  offset="1" style="stop-color:#D1C778"/>
	</linearGradient>
	<path clip-path="url(#SVGID_7_)" fill="url(#SVGID_8_)" d="M30.254,58.501v-2c14.358-0.027,25.974-11.643,26-26
		c-0.026-14.359-11.642-25.975-26-26c-14.359,0.026-25.975,11.641-26,26c0.026,14.358,11.641,25.973,26,26V58.501v2
		c-16.57-0.002-29.999-13.432-30-30l0,0c0.001-16.57,13.43-29.999,30-30c16.568,0.001,29.998,13.431,30,30
		c-0.002,16.569-13.432,29.999-30,30V58.501z"/>
</g>
<g>
	<path d="M30.508,12c0.937,0.597,1.857,1.221,2.814,1.783c1.158,0.681,2.334,1.333,3.525,1.958c1.936,1.018,3.949,1.861,6.037,2.505
		c1.154,0.355,2.33,0.637,3.496,0.947c0.666,0.178,0.947,0.502,0.978,1.188c0.13,2.853-0.071,5.681-0.649,8.481
		c-0.5,2.437-1.276,4.777-2.303,7.045c-1.121,2.473-2.527,4.771-4.166,6.934c-1.394,1.838-2.951,3.527-4.633,5.102
		c-1.355,1.268-2.803,2.428-4.335,3.479c-0.244,0.166-0.509,0.303-0.765,0.451c-0.17,0-0.34,0-0.51,0
		c-1.469-0.859-2.828-1.877-4.067-3.033c-1.332-1.242-2.658-2.504-3.886-3.848c-2.145-2.352-3.91-4.98-5.35-7.82
		c-0.982-1.941-1.771-3.961-2.359-6.06c-0.981-3.513-1.351-7.094-1.188-10.733c0.031-0.685,0.314-1.002,0.98-1.187
		c1.552-0.428,3.115-0.82,4.646-1.316c1.815-0.588,3.547-1.395,5.247-2.267c1.586-0.814,3.124-1.705,4.604-2.697
		c0.455-0.307,0.916-0.606,1.373-0.91C30.168,12,30.338,12,30.508,12z M15.245,21.14c-0.006,0.093-0.013,0.177-0.015,0.261
		c-0.073,3.119,0.297,6.184,1.14,9.187c0.789,2.808,1.975,5.454,3.502,7.938c1.267,2.064,2.74,3.977,4.387,5.756
		c1.74,1.887,3.644,3.578,5.721,5.082c0.208,0.148,0.363,0.143,0.559-0.01c0.416-0.326,0.85-0.635,1.268-0.961
		c1.881-1.459,3.587-3.104,5.154-4.896c1.787-2.041,3.342-4.244,4.627-6.635c1.065-1.977,1.914-4.043,2.529-6.194
		c0.579-2.034,0.951-4.11,1.084-6.224c0.068-1.099,0.075-2.203,0.107-3.302c-0.157-0.044-0.258-0.071-0.36-0.1
		c-0.937-0.268-1.886-0.502-2.81-0.812c-1.124-0.378-2.24-0.784-3.334-1.242c-1.124-0.471-2.225-0.994-3.314-1.541
		c-1.734-0.869-3.408-1.85-5.013-2.946c-0.151-0.103-0.276-0.111-0.433-0.003c-0.428,0.294-0.853,0.598-1.301,0.857
		c-1.34,0.771-2.67,1.565-4.043,2.271c-1.177,0.605-2.396,1.136-3.621,1.634c-1.078,0.438-2.188,0.806-3.293,1.165
		C16.952,20.696,16.097,20.903,15.245,21.14z"/>
	<path d="M42.874,24.546c0.033,2.07-0.256,4.104-0.776,6.101c-0.442,1.703-1.079,3.339-1.862,4.921
		c-0.916,1.854-2.05,3.564-3.349,5.168c-1.134,1.398-2.364,2.717-3.757,3.867c-0.815,0.676-1.67,1.303-2.498,1.963
		c-0.264,0.211-0.481,0.195-0.756,0.004c-1.67-1.174-3.203-2.5-4.61-3.979c-1.845-1.939-3.433-4.062-4.687-6.428
		c-1.43-2.695-2.367-5.541-2.763-8.57c-0.198-1.521-0.244-3.043-0.188-4.574c0.008-0.204,0.059-0.287,0.271-0.333
		c2.308-0.502,4.531-1.262,6.665-2.275c1.859-0.883,3.661-1.872,5.328-3.087c0.262-0.19,0.451-0.199,0.722-0.006
		c1.479,1.051,3.06,1.934,4.683,2.744c1.521,0.758,3.084,1.415,4.705,1.92c0.867,0.271,1.756,0.486,2.64,0.71
		c0.18,0.045,0.243,0.112,0.237,0.294C42.87,23.507,42.874,24.026,42.874,24.546z"/>
</g>
</svg>
