<?xml version="1.0" encoding="utf-8"?>
<!-- Generator: Adobe Illustrator 16.0.0, SVG Export Plug-In . SVG Version: 6.00 Build 0)  -->
<!DOCTYPE svg PUBLIC "-//W3C//DTD SVG 1.1//EN" "http://www.w3.org/Graphics/SVG/1.1/DTD/svg11.dtd">
<svg version="1.1" id="Layer_1" xmlns="http://www.w3.org/2000/svg" xmlns:xlink="http://www.w3.org/1999/xlink" x="0px" y="0px"
	 width="60.508px" height="99.002px" viewBox="0 -19.751 60.508 99.002" enable-background="new 0 -19.751 60.508 99.002"
	 xml:space="preserve">
<g>
	<g>
		<defs>
			<path id="SVGID_1_" d="M30.254,2.392c15.831,0,28.663,12.833,28.663,28.662c0,15.804-12.832,28.629-28.663,28.629
				c-15.83,0-28.663-12.825-28.663-28.629C1.591,15.225,14.424,2.392,30.254,2.392z"/>
		</defs>
		<clipPath id="SVGID_2_">
			<use xlink:href="#SVGID_1_"  overflow="visible"/>
		</clipPath>
		<g clip-path="url(#SVGID_2_)">
			<path d="M50.831,32.394c-0.037,0.227-0.076,0.452-0.113,0.68c-0.295,1.804-0.949,3.481-1.82,5.076
				c-0.521,0.954-1.781,1.208-2.686,0.599c-0.08-0.055-0.154-0.11-0.303-0.211c-0.01,0.229-0.021,0.396-0.021,0.562
				c-0.004,5.559,0.004,11.117-0.01,16.685c-0.002,0.428-0.049,0.877-0.188,1.275c-0.336,0.942-1.359,1.467-2.439,1.315
				c-0.93-0.131-1.699-0.991-1.801-2.024c-0.018-0.187-0.016-0.377-0.016-0.562c0-4.829,0-9.649,0-14.47
				c0-0.115,0.021-0.238-0.01-0.346c-0.023-0.087-0.113-0.155-0.174-0.231c-0.045,0.074-0.111,0.146-0.131,0.228
				c-0.023,0.097-0.008,0.201-0.008,0.304c0,4.879-0.006,9.756,0.006,14.644c0.002,1.056-0.361,1.882-1.357,2.313
				c-1.328,0.571-3.008-0.223-3.098-2.094c-0.006-0.113-0.002-0.23-0.002-0.348c0-5.771,0.172-11.539-0.061-17.291
				c-0.162-4.004-0.082-7.999-0.178-12.004c-0.006-0.262-0.104-0.333-0.352-0.373c-1.557-0.252-3.119-0.489-4.666-0.799
				c-1.468-0.294-2.182-1.238-2.099-2.734c0.035-0.63,0.133-1.275,0.327-1.873c0.329-1.016,0.756-1.999,1.17-3.07
				c-0.605-0.289-1.275-0.609-1.971-0.942c0.027-0.135,0.055-0.267,0.09-0.441c-0.306-0.14-0.617-0.258-0.901-0.423
				c-0.16-0.093-0.274-0.264-0.409-0.399c0.179,0.024,0.367,0.022,0.535,0.078c0.205,0.067,0.391,0.188,0.588,0.278
				c0.174,0.08,0.351,0.242,0.521-0.031c0.024-0.04,0.209-0.013,0.3,0.028c0.685,0.313,1.358,0.651,2.05,0.948
				c0.258,0.11,0.549,0.16,0.83,0.19c0.523,0.056,0.971,0.235,1.348,0.617c0.115,0.115,0.346,0.194,0.508,0.171
				c1.053-0.154,2.047,0.307,2.613,1.189c0.457,0.71,0.035,1.505-0.809,1.579c-0.725,0.064-1.27-0.103-2.096-0.666
				c-0.27,0.663-0.531,1.31-0.824,2.035c0.582,0.103,1.09,0.197,1.598,0.282c0.629,0.104,1.258,0.206,1.889,0.298
				c0.84,0.123,1.615,0.005,2.377-0.438c1.051-0.613,1.076-0.571,1.912,0.323c0.09,0.095,0.188,0.184,0.281,0.273
				c0.039,0.039,0.084,0.074,0.246,0.212c0.25-0.297,0.516-0.583,0.742-0.895c0.24-0.33,0.508-0.351,0.865-0.205
				c1.203,0.492,2.281,1.189,3.32,1.958c1.27,0.939,2.355,2.043,3.17,3.41c0.609,1.023,0.963,2.131,1.166,3.295
				c0.021,0.126,0.055,0.25,0.082,0.375C50.831,31.294,50.831,31.844,50.831,32.394z M41.452,23.281
				c-0.039-0.004-0.078-0.007-0.115-0.011c-0.051,0.31-0.102,0.62-0.146,0.931c-0.312,2.106-0.629,4.211-0.938,6.318
				c-0.018,0.119-0.006,0.273,0.059,0.368c0.334,0.484,0.688,0.957,1.072,1.482c0.354-0.478,0.689-0.89,0.977-1.334
				c0.113-0.173,0.178-0.428,0.15-0.628c-0.23-1.665-0.488-3.325-0.736-4.986C41.665,24.707,41.559,23.995,41.452,23.281z
				 M46.379,34.476c0.719-1.746,0.965-3.492,0-5.24C46.379,30.985,46.379,32.731,46.379,34.476z"/>
			<path d="M-3.642,55.595c0.254-0.703,0.448-1.438,0.777-2.104c0.534-1.084,1.378-1.934,2.367-2.609
				c0.666-0.455,1.39-0.825,2.084-1.238c0.351-0.208,0.621-0.113,0.859,0.191c0.123,0.156,0.271,0.294,0.524,0.565
				c0.1-0.166,0.159-0.322,0.266-0.434c0.505-0.521,0.53-0.557,1.173-0.228c2.064,1.063,3.861,2.408,4.667,4.725
				c0.019,0.055,0.046,0.105,0.076,0.155c0.012,0.021,0.04,0.032,0.041,0.034c0.328-0.604,0.605-1.243,0.996-1.807
				c1.027-1.48,2.46-2.466,4.074-3.218c0.346-0.161,0.597-0.116,0.82,0.19c0.126,0.174,0.282,0.325,0.511,0.587
				c0.121-0.184,0.188-0.316,0.285-0.421c0.497-0.544,0.518-0.579,1.167-0.252c1.935,0.978,3.631,2.238,4.531,4.304
				c0.239,0.547,0.349,1.149,0.516,1.721c0.297-2.247,1.588-3.851,3.419-5.075c0.587-0.391,1.226-0.703,1.84-1.056
				c0.296-0.169,0.536-0.132,0.741,0.159c0.132,0.188,0.297,0.349,0.586,0.682c0.122-0.224,0.174-0.387,0.28-0.5
				c0.496-0.532,0.516-0.558,1.169-0.229c1.772,0.895,3.331,2.054,4.299,3.846c0.557,1.027,0.789,2.135,0.637,3.354
				c-0.791,0-1.572,0.013-2.352-0.017c-0.072-0.003-0.197-0.241-0.197-0.37c-0.002-0.58-0.098-1.13-0.473-1.63
				c0,0.655,0,1.31,0,1.991c-1.139,0-2.217,0-3.371,0c0.125-0.191,0.198-0.352,0.313-0.471c0.337-0.351,0.432-0.74,0.353-1.224
				c-0.227-1.388-0.421-2.778-0.632-4.169c-0.012-0.078-0.052-0.15-0.176-0.229c-0.064,0.467-0.124,0.934-0.193,1.397
				c-0.157,1.062-0.308,2.122-0.486,3.181c-0.058,0.346,0.014,0.615,0.239,0.877c0.155,0.179,0.276,0.388,0.449,0.636
				c-1.164,0-2.244,0-3.359,0c0-0.69,0-1.354,0-2.019c-0.481,0.59-0.5,1.275-0.482,2.01c-1.751,0-3.48,0-5.186,0
				c-0.106-0.676-0.21-1.332-0.313-1.986c-0.075,0.004-0.15,0.009-0.226,0.014c0,0.375,0,0.752,0,1.127c0,0.877,0,0.877-0.864,0.877
				c-0.807,0-1.614,0-2.439,0c0.018-0.094,0.01-0.147,0.035-0.172c0.619-0.591,0.674-1.283,0.509-2.093
				c-0.24-1.177-0.374-2.374-0.556-3.563c-0.02-0.125-0.058-0.25-0.146-0.377c-0.138,0.854-0.279,1.705-0.411,2.56
				c-0.104,0.673-0.161,1.354-0.304,2.019c-0.086,0.402,0.009,0.697,0.253,0.992c0.143,0.172,0.259,0.364,0.429,0.605
				c-1.162,0-2.239,0-3.35,0c0-0.694,0-1.373,0-2.051c-0.52,0.597-0.462,1.316-0.475,2.049c-1.621,0-3.208,0-4.771,0
				c-0.115-0.668-0.23-1.336-0.345-2.004c-0.066,0.006-0.133,0.015-0.199,0.021c0,0.521-0.018,1.047,0.006,1.568
				c0.016,0.337-0.086,0.462-0.438,0.453c-0.954-0.021-1.909-0.008-2.97-0.008c0.223-0.318,0.42-0.545,0.554-0.806
				c0.098-0.19,0.181-0.435,0.153-0.638c-0.215-1.577-0.459-3.15-0.769-4.745c-0.046,0.19-0.107,0.378-0.136,0.571
				c-0.209,1.375-0.427,2.748-0.603,4.129c-0.03,0.238,0.094,0.517,0.204,0.75c0.108,0.229,0.289,0.422,0.483,0.695
				c-1.145,0-2.215,0-3.345,0c0-0.68,0-1.351,0-2.021c-0.049-0.012-0.097-0.02-0.146-0.027c-0.096,0.328-0.218,0.651-0.282,0.985
				c-0.064,0.338-0.072,0.687-0.108,1.067c-0.858,0-1.72,0-2.582,0C-3.642,56.465-3.642,56.03-3.642,55.595z"/>
			<path d="M36.545,16.313c0.105-2.733,2.316-4.833,4.982-4.727c2.686,0.106,4.783,2.321,4.689,4.928
				c-0.098,2.798-2.346,4.801-4.938,4.729C38.415,21.165,36.52,18.863,36.545,16.313z"/>
			<path d="M22.263,45.229c-1.888-0.008-3.463-1.589-3.449-3.462c0.015-1.87,1.622-3.459,3.478-3.44
				c1.899,0.02,3.473,1.57,3.438,3.471C25.691,43.792,24.208,45.188,22.263,45.229z"/>
			<path d="M12.655,41.809c-0.015,1.914-1.57,3.451-3.463,3.423c-1.921-0.029-3.463-1.593-3.425-3.475
				c0.038-1.91,1.61-3.462,3.477-3.43C11.155,38.36,12.669,39.906,12.655,41.809z"/>
			<path d="M15.692,49.275c-1.753,0.133-3.342-1.299-3.487-3.143c-0.131-1.68,1.274-3.325,2.885-3.504
				c2.075-0.231,3.697,1.312,3.8,3.162C18.992,47.591,17.597,49.129,15.692,49.275z"/>
			<path d="M2.893,42.603c1.852,0.003,3.338,1.492,3.332,3.343c-0.007,1.85-1.505,3.351-3.338,3.342
				c-1.846-0.01-3.329-1.502-3.329-3.348C-0.443,44.083,1.041,42.601,2.893,42.603z"/>
			<path d="M31.944,45.92c0.016,1.83-1.485,3.348-3.326,3.363c-1.821,0.017-3.345-1.492-3.361-3.326
				c-0.016-1.837,1.463-3.328,3.326-3.352C30.417,42.582,31.928,44.073,31.944,45.92z"/>
			<path d="M21.294,52.138c-0.94-1.146-2.143-1.959-3.462-2.698c0.89-0.651,1.467-1.453,1.714-2.476
				c0.062-0.259,0.084-0.622,0.257-0.736c0.463-0.306,0.995-0.513,1.512-0.731c0.077-0.029,0.241,0.062,0.326,0.142
				c0.212,0.194,0.402,0.414,0.639,0.662c0.214-0.208,0.438-0.392,0.617-0.608c0.183-0.223,0.384-0.237,0.614-0.134
				c0.329,0.149,0.657,0.306,0.972,0.479c0.083,0.047,0.162,0.172,0.171,0.271c0.124,1.297,0.72,2.323,1.831,3.134
				c-1.23,0.692-2.434,1.354-3.354,2.562c-0.281-1.842-0.544-3.566-0.807-5.295c-0.03,0.002-0.061,0.004-0.091,0.004
				c-0.271,1.798-0.542,3.595-0.814,5.391C21.377,52.112,21.335,52.126,21.294,52.138z"/>
			<path d="M8.401,51.78c-1.068-0.816-2.094-1.604-3.137-2.398c0.707-0.559,1.302-1.231,1.556-2.146
				c0.058-0.206,0.09-0.423,0.138-0.633c0.046-0.205,0.032-0.514,0.16-0.595c0.36-0.229,0.774-0.379,1.179-0.523
				c0.073-0.023,0.221,0.104,0.311,0.188c0.202,0.187,0.389,0.386,0.613,0.611c0.172-0.162,0.374-0.294,0.496-0.479
				c0.252-0.38,0.555-0.354,0.901-0.183c0.246,0.121,0.504,0.228,0.729,0.381c0.125,0.085,0.266,0.247,0.277,0.385
				c0.106,1.281,0.735,2.253,1.755,3.016c-1.092,0.854-2.166,1.694-3.312,2.592c-0.276-1.807-0.538-3.521-0.8-5.238
				c-0.035,0.003-0.07,0.005-0.105,0.007C8.906,48.446,8.651,50.127,8.401,51.78z"/>
		</g>
	</g>
</g>
<g>
	<defs>
		<rect id="SVGID_3_" x="28.254" y="-19.751" width="4" height="20.346"/>
	</defs>
	<clipPath id="SVGID_4_">
		<use xlink:href="#SVGID_3_"  overflow="visible"/>
	</clipPath>
	<line clip-path="url(#SVGID_4_)" fill="none" stroke="#210000" x1="30.254" y1="0.594" x2="30.254" y2="-17.752"/>
</g>
<rect x="28.254" y="-19.752" fill="#210000" width="4" height="4"/>
<g>
	<defs>
		<polygon id="SVGID_5_" points="34.27,58.827 30.254,78.521 26.238,58.827 		"/>
	</defs>
	<clipPath id="SVGID_6_">
		<use xlink:href="#SVGID_5_"  overflow="visible"/>
	</clipPath>
	
		<linearGradient id="SVGID_7_" gradientUnits="userSpaceOnUse" x1="-31.4702" y1="94.1455" x2="-30.4702" y2="94.1455" gradientTransform="matrix(13.8637 -13.8637 -13.8637 -13.8637 1764.824 944.5187)">
		<stop  offset="0" style="stop-color:#898452"/>
		<stop  offset="0.0219" style="stop-color:#898452"/>
		<stop  offset="0.6512" style="stop-color:#F4EEC9"/>
		<stop  offset="1" style="stop-color:#D1C778"/>
	</linearGradient>
	<polygon clip-path="url(#SVGID_6_)" fill="url(#SVGID_7_)" points="16.391,68.673 30.254,54.812 44.116,68.673 30.254,82.536 	"/>
</g>
<g>
	<defs>
		<rect id="SVGID_8_" x="-0.246" width="61" height="78.521"/>
	</defs>
	<clipPath id="SVGID_9_">
		<use xlink:href="#SVGID_8_"  overflow="visible"/>
	</clipPath>
	<path clip-path="url(#SVGID_9_)" fill="none" d="M30.254,58.501c15.463,0,28-12.537,28-28c0-15.465-12.537-28-28-28
		c-15.465,0-28,12.536-28,28C2.254,45.964,14.79,58.501,30.254,58.501"/>
	
		<linearGradient id="SVGID_10_" gradientUnits="userSpaceOnUse" x1="-32.8286" y1="94.6084" x2="-31.8286" y2="94.6084" gradientTransform="matrix(59 -59 -59 -59 7519.5527 3705.0679)">
		<stop  offset="0" style="stop-color:#898452"/>
		<stop  offset="0.0219" style="stop-color:#898452"/>
		<stop  offset="0.6512" style="stop-color:#F4EEC9"/>
		<stop  offset="1" style="stop-color:#D1C778"/>
	</linearGradient>
	<path clip-path="url(#SVGID_9_)" fill="url(#SVGID_10_)" d="M30.254,58.501v-2c14.358-0.027,25.974-11.643,26-26
		c-0.026-14.359-11.642-25.975-26-26c-14.359,0.026-25.975,11.641-26,26c0.026,14.358,11.641,25.973,26,26V58.501v2
		c-16.57-0.002-29.999-13.432-30-30l0,0c0.001-16.57,13.43-29.999,30-30c16.568,0.001,29.998,13.431,30,30
		c-0.002,16.569-13.432,29.999-30,30V58.501z"/>
</g>
</svg>
