<?xml version="1.0" encoding="utf-8"?>
<!-- Generator: Adobe Illustrator 16.0.0, SVG Export Plug-In . SVG Version: 6.00 Build 0)  -->
<!DOCTYPE svg PUBLIC "-//W3C//DTD SVG 1.1//EN" "http://www.w3.org/Graphics/SVG/1.1/DTD/svg11.dtd">
<svg version="1.1" id="Layer_1" xmlns="http://www.w3.org/2000/svg" xmlns:xlink="http://www.w3.org/1999/xlink" x="0px" y="0px"
	 width="60.508px" height="99.239px" viewBox="0 -19.751 60.508 99.239" enable-background="new 0 -19.751 60.508 99.239"
	 xml:space="preserve">
<g>
	<defs>
		<rect id="SVGID_1_" x="28.254" y="59.488" width="4" height="20"/>
	</defs>
	<clipPath id="SVGID_2_">
		<use xlink:href="#SVGID_1_"  overflow="visible"/>
	</clipPath>
	<line clip-path="url(#SVGID_2_)" fill="none" stroke="#210000" x1="30.254" y1="77.488" x2="30.254" y2="59.488"/>
</g>
<rect x="28.254" y="75.488" fill="#210000" width="4" height="4"/>
<g>
	<defs>
		<polygon id="SVGID_3_" points="26.238,0.105 30.253,-19.588 34.27,0.105 		"/>
	</defs>
	<clipPath id="SVGID_4_">
		<use xlink:href="#SVGID_3_"  overflow="visible"/>
	</clipPath>
	
		<linearGradient id="SVGID_5_" gradientUnits="userSpaceOnUse" x1="-34.2983" y1="91.3184" x2="-33.2983" y2="91.3184" gradientTransform="matrix(-13.8637 13.8637 13.8637 13.8637 -1704.3162 -807.173)">
		<stop  offset="0" style="stop-color:#898452"/>
		<stop  offset="0.0219" style="stop-color:#898452"/>
		<stop  offset="0.6512" style="stop-color:#F4EEC9"/>
		<stop  offset="1" style="stop-color:#D1C778"/>
	</linearGradient>
	<polygon clip-path="url(#SVGID_4_)" fill="url(#SVGID_5_)" points="44.117,-9.741 30.253,4.121 16.392,-9.741 30.253,-23.604 	"/>
</g>
<g>
	<defs>
		<rect id="SVGID_6_" x="-0.246" y="-0.851" width="61" height="78.522"/>
	</defs>
	<clipPath id="SVGID_7_">
		<use xlink:href="#SVGID_6_"  overflow="visible"/>
	</clipPath>
	<path clip-path="url(#SVGID_7_)" fill="none" d="M30.254,57.651c15.463,0,28-12.537,28-28.002s-12.537-28-28-28
		c-15.465,0-28,12.536-28,28S14.79,57.651,30.254,57.651"/>
	
		<linearGradient id="SVGID_8_" gradientUnits="userSpaceOnUse" x1="-32.8213" y1="94.6162" x2="-31.8213" y2="94.6162" gradientTransform="matrix(59 -59 -59 -59 7519.5527 3705.0679)">
		<stop  offset="0" style="stop-color:#898452"/>
		<stop  offset="0.0219" style="stop-color:#898452"/>
		<stop  offset="0.6512" style="stop-color:#F4EEC9"/>
		<stop  offset="1" style="stop-color:#D1C778"/>
	</linearGradient>
	<path clip-path="url(#SVGID_7_)" fill="url(#SVGID_8_)" d="M30.254,57.651v-2c14.358-0.027,25.974-11.643,26-26.002
		c-0.026-14.359-11.642-25.975-26-26c-14.359,0.026-25.975,11.641-26,26c0.026,14.359,11.641,25.975,26,26.002V57.651v2
		c-16.57-0.002-29.999-13.432-30-30.002l0,0c0.001-16.57,13.43-29.999,30-30c16.568,0.001,29.998,13.431,30,30
		c-0.002,16.57-13.432,30-30,30.002V57.651z"/>
</g>
<g>
	<path d="M15.983,44.475c-0.233,0.216-0.403,0.372-0.677,0.626c-0.354-0.395-0.689-0.803-1.059-1.174
		c-1.611-1.629-3.236-3.243-4.849-4.866c-1.086-1.097-1.104-2.604-0.013-3.69c2.343-2.339,4.704-4.655,7.057-6.984
		c0.535-0.528,1.172-0.776,1.924-0.773c2.234,0.008,4.469,0.014,6.703,0c0.801-0.004,1.455,0.271,2.021,0.836
		c1.714,1.707,3.442,3.393,5.168,5.088c0.089,0.086,0.183,0.17,0.306,0.284c1.471-1.482,2.93-2.959,4.383-4.431
		c1.147,1.166,2.25,2.283,3.373,3.42c-0.043,0.047-0.134,0.148-0.229,0.244c-1.886,1.887-3.793,3.75-5.646,5.67
		c-0.986,1.019-2.764,1.09-3.776-0.006c-0.931-1.004-1.929-1.942-2.898-2.907c-0.096-0.097-0.201-0.183-0.386-0.347
		c0,0.31,0,0.524,0,0.74c0,3.532-0.042,7.067,0.019,10.6c0.027,1.72-1.306,2.836-2.801,2.785c-1.996-0.071-3.994-0.019-5.99-0.016
		c-1.512,0.003-2.621-1.094-2.629-2.604C15.979,46.163,15.983,45.358,15.983,44.475z M20.182,37.515c0,0.158,0.001,0.281,0,0.402
		c0,1.299,0.033,2.598-0.017,3.893c-0.031,0.808,0.135,1.424,0.763,2.021c1.021,0.975,0.737,2.518-0.494,3.219
		c-0.216,0.121-0.322,0.236-0.213,0.479c1.934,0,3.865,0,5.788,0c0-3.354,0-6.681,0-10.017
		C24.069,37.515,22.159,37.515,20.182,37.515z M15.957,38.788c0-1.07,0-2.107,0-3.123c-0.528,0.532-1.054,1.057-1.544,1.549
		C14.901,37.712,15.416,38.234,15.957,38.788z"/>
	<path d="M26.716,21.275c0.003,2.661-2.149,4.823-4.808,4.831c-2.65,0.008-4.844-2.198-4.832-4.862
		c0.01-2.573,2.176-4.776,4.695-4.778C24.567,16.466,26.715,18.554,26.716,21.275z"/>
	<path d="M41.259,31.543c-0.974-0.972-1.92-1.919-2.918-2.917c0.877-0.668,1.376-1.791,2.59-2.05
		c0.056-0.011,0.114-0.044,0.161-0.032c0.652,0.174,0.842-0.299,1.081-0.74c1.924-3.537,3.854-7.066,5.786-10.599
		c0.302-0.554,0.771-0.674,1.287-0.342c0.449,0.291,0.537,0.681,0.263,1.187c-2.049,3.752-4.099,7.506-6.153,11.254
		c-0.135,0.242-0.175,0.445-0.09,0.734c0.209,0.715,0.057,1.393-0.458,1.946C42.313,30.514,41.788,31.015,41.259,31.543z"/>
</g>
</svg>
