<svg id="Layer_2" data-name="Layer 2" xmlns="http://www.w3.org/2000/svg" xmlns:xlink="http://www.w3.org/1999/xlink" viewBox="0 0 160 160"><defs><style>.cls-1,.cls-4,.cls-6{fill:none;}.cls-2{fill:#fff;}.cls-3{clip-path:url(#clip-path);}.cls-4{stroke:#000;}.cls-4,.cls-6{stroke-miterlimit:10;}.cls-5{fill:url(#Новый_образец_градиентной_залив);}.cls-6{stroke-width:8px;stroke:url(#linear-gradient);}</style><clipPath id="clip-path"><circle class="cls-1" cx="79.39" cy="79.86" r="69.87"/></clipPath><linearGradient id="Новый_образец_градиентной_залив" x1="59.7" y1="122.28" x2="104.54" y2="167.12" gradientUnits="userSpaceOnUse"><stop offset="0" stop-color="#919394"/><stop offset="0.47" stop-color="#ebebeb"/><stop offset="1" stop-color="#919394"/></linearGradient><linearGradient id="linear-gradient" x1="27.15" y1="132.1" x2="131.62" y2="27.63" gradientUnits="userSpaceOnUse"><stop offset="0" stop-color="#707070"/><stop offset="0.5" stop-color="#ebebeb"/><stop offset="1" stop-color="#919394"/></linearGradient></defs><title>МШ Иконки cs6 </title><circle class="cls-2" cx="79.39" cy="79.86" r="69.87"/><g class="cls-3"><path d="M51.5,89.83C47.28,71,52.84,62.44,64.33,60.16c12.86-6,25.19-6.67,36.33,4.83,5.17,5.5,4.21,12.7,3.17,24.83H100.5s-.67,9.83-1,8.83-1.33-10.33-1.33-10.33C80.27,87.85,69.3,81.49,63,71.16c.21,5.08-1.1,10.47-5.5,16.5,0,0,.17,12.48-.17,11.07S55,89.33,55,89.33Z"/><path class="cls-4" d="M51.5,89.83c-5.87,4.83-1.91,10.41,4.17,16.17C62,117.34,69,126.34,79,125.66c8.38.65,15.64-7,22.17-20,6.6-7.05,7.59-12.36,2.67-15.83"/><path class="cls-5" d="M39.67,142.5c0-.67,9-8.17,9-8.17l16.55-6v-8.77l6.9,4.93L79,125.66l7.63-1.78,4.24-3.18v6.63l24.29,10.17,6.67,7.5-9.67,14.5-46.67,4Z"/><polygon points="27.88 61.5 36.12 61.5 42.13 66.81 42 61.5 46.38 61.5 46.38 49.06 27.88 49.06 27.88 61.5"/><rect class="cls-2" x="31.13" y="51.81" width="11.81" height="1.31"/><rect class="cls-2" x="31.13" y="54.61" width="11.81" height="1.31"/><rect class="cls-2" x="31.13" y="57.41" width="11.81" height="1.31"/><polygon points="128.25 62.28 120 62.28 114 67.59 114.13 62.28 109.75 62.28 109.75 49.84 128.25 49.84 128.25 62.28"/><rect class="cls-2" x="113.19" y="52.59" width="11.81" height="1.31" transform="translate(238.19 106.5) rotate(180)"/><rect class="cls-2" x="113.19" y="55.39" width="11.81" height="1.31" transform="translate(238.19 112.09) rotate(180)"/><rect class="cls-2" x="113.19" y="58.19" width="11.81" height="1.31" transform="translate(238.19 117.69) rotate(180)"/><polygon points="54.44 45.6 65.56 45.6 73.66 52.77 73.49 45.6 79.39 45.6 79.39 28.83 54.44 28.83 54.44 45.6"/><rect class="cls-2" x="58.82" y="32.54" width="15.93" height="1.77"/><rect class="cls-2" x="58.82" y="36.31" width="15.93" height="1.77"/><rect class="cls-2" x="58.82" y="40.09" width="15.93" height="1.77"/></g><circle class="cls-6" cx="79.39" cy="79.86" r="69.87"/></svg>