<svg id="SvgjsSvg1000" xmlns="http://www.w3.org/2000/svg" version="1.1" xmlns:xlink="http://www.w3.org/1999/xlink" xmlns:svgjs="http://svgjs.com/svgjs" width="53" height="85" viewBox="0 0 53 85"><title>Эллипс 2</title><desc>Created with Avocode.</desc><defs id="SvgjsDefs1001"><filter id="SvgjsFilter1008" width="200%" height="200%" x="-50%" y="-50%"><feMorphology id="SvgjsFeMorphology1009" operator="dilate" radius="0" result="SvgjsFeMorphology1009Out" in="SourceGraphic"></feMorphology><feOffset id="SvgjsFeOffset1010" dx="0" dy="3" result="SvgjsFeOffset1010Out" in="SvgjsFeMorphology1009Out"></feOffset><feGaussianBlur id="SvgjsFeGaussianBlur1011" stdDeviation="3.5 " result="SvgjsFeGaussianBlur1011Out" in="SvgjsFeOffset1010Out"></feGaussianBlur><feComposite id="SvgjsFeComposite1012" in="SvgjsFeGaussianBlur1011Out" in2="SourceAlpha" operator="out" result="SvgjsFeComposite1012Out"></feComposite></filter><linearGradient id="SvgjsLinearGradient1016" gradientUnits="userSpaceOnUse" x1="583.955155" y1="6479.070381856687" x2="635.043845" y2="6489.929618143313"><stop id="SvgjsStop1017" stop-opacity="1" stop-color="#cfc892" offset="0"></stop><stop id="SvgjsStop1018" stop-opacity="1" stop-color="#fff8cc" offset="0.54"></stop><stop id="SvgjsStop1019" stop-opacity="1" stop-color="#c9c5aa" offset="1"></stop></linearGradient></defs><path id="SvgjsPath1007" d="M609.5 6449C620.269 6449 628.999 6457.73 628.999 6468.5C628.999 6479.51 614.975 6509.22 610 6520C603.691 6508.37 590 6479.69 590 6468.5C590 6457.73 598.73 6449 609.5 6449ZM602 6468C602 6472.42 605.582 6476 610 6476C614.418 6476 618 6472.42 618 6468C618 6463.58 614.418 6460 610 6460C605.582 6460 602 6463.58 602 6468Z " fill="#000000" fill-opacity="0.35" filter="url(#SvgjsFilter1008)" transform="matrix(1,0,0,1,-583,-6445)"></path><path id="SvgjsPath1013" d="M609.5 6449C620.269 6449 628.999 6457.73 628.999 6468.5C628.999 6479.51 614.975 6509.22 610 6520C603.691 6508.37 590 6479.69 590 6468.5C590 6457.73 598.73 6449 609.5 6449ZM602 6468C602 6472.42 605.582 6476 610 6476C614.418 6476 618 6472.42 618 6468C618 6463.58 614.418 6460 610 6460C605.582 6460 602 6463.58 602 6468Z " fill="#000000" fill-opacity="1" transform="matrix(1,0,0,1,-583,-6445)"></path><path id="SvgjsPath1014" d="M609.5 6449C620.269 6449 628.999 6457.73 628.999 6468.5C628.999 6479.51 614.975 6509.22 610 6520C603.691 6508.37 590 6479.69 590 6468.5C590 6457.73 598.73 6449 609.5 6449ZM602 6468C602 6472.42 605.582 6476 610 6476C614.418 6476 618 6472.42 618 6468C618 6463.58 614.418 6460 610 6460C605.582 6460 602 6463.58 602 6468Z " fill="#000000" fill-opacity="1" transform="matrix(1,0,0,1,-583,-6445)"></path><path id="SvgjsPath1015" d="M609.5 6449C620.269 6449 628.999 6457.73 628.999 6468.5C628.999 6479.51 614.975 6509.22 610 6520C603.691 6508.37 590 6479.69 590 6468.5C590 6457.73 598.73 6449 609.5 6449ZM602 6468C602 6472.42 605.582 6476 610 6476C614.418 6476 618 6472.42 618 6468C618 6463.58 614.418 6460 610 6460C605.582 6460 602 6463.58 602 6468Z " fill="url(#SvgjsLinearGradient1016)" transform="matrix(1,0,0,1,-583,-6445)"></path></svg>