<svg id="Layer_2" data-name="Layer 2" xmlns="http://www.w3.org/2000/svg" xmlns:xlink="http://www.w3.org/1999/xlink" viewBox="0 0 160 160"><defs><style>.cls-1,.cls-10,.cls-5,.cls-8,.cls-9{fill:none;}.cls-2,.cls-6{fill:#fff;}.cls-3{clip-path:url(#clip-path);}.cls-4,.cls-5,.cls-6,.cls-7,.cls-9{stroke:#000;}.cls-10,.cls-4,.cls-5,.cls-6,.cls-7,.cls-8,.cls-9{stroke-miterlimit:10;}.cls-7{fill:url(#Безымянный_градиент_9);}.cls-8{stroke:#fff;}.cls-9{stroke-width:2px;}.cls-10{stroke-width:8px;stroke:url(#linear-gradient);}</style><clipPath id="clip-path"><circle class="cls-1" cx="80" cy="79.86" r="69.87"/></clipPath><linearGradient id="Безымянный_градиент_9" x1="62.53" y1="62.56" x2="97.53" y2="62.56" gradientUnits="userSpaceOnUse"><stop offset="0" stop-color="#cbc38c"/><stop offset="0.49" stop-color="#ebe8a9"/><stop offset="1" stop-color="#8e8c60"/></linearGradient><linearGradient id="linear-gradient" x1="27.76" y1="132.1" x2="132.23" y2="27.63" gradientUnits="userSpaceOnUse"><stop offset="0" stop-color="#707070"/><stop offset="0.5" stop-color="#ebebeb"/><stop offset="1" stop-color="#919394"/></linearGradient></defs><title>МШ Иконки cs6 </title><circle class="cls-2" cx="80" cy="79.86" r="69.87"/><g class="cls-3"><path class="cls-4" d="M142.45,95.9v4.32a2.61,2.61,0,0,1,0,.41c-1,7.17-28.56,12.9-62.4,12.9-34.47,0-62.42-6-62.42-13.31a35,35,0,0,1,0-4.32c.16-1,0,.74,0,0,0-7.35,28-13.31,62.42-13.31S142.45,88.55,142.45,95.9Z"/><path class="cls-5" d="M131.55,101.1v.57h0A3.64,3.64,0,0,0,131.55,101.1Z"/><ellipse class="cls-6" cx="80.03" cy="95.77" rx="62.42" ry="13.31"/><path d="M92.18,96.5c0,1.75-5.44,3.17-12.16,3.17S67.85,98.25,67.85,96.5c0-1.39,7.67-4.09,10.83-5.14V71.46l1.34.66,1.33-.66v19.9C84.5,92.4,92.18,95.11,92.18,96.5Z"/><path class="cls-7" d="M97.53,59.92c0,3.17-12.08,9.5-16.17,11.54L80,72.12l-1.34-.66c-4.1-2.05-16.16-8.37-16.16-11.54C62.53,56.09,70.36,53,80,53S97.53,56.09,97.53,59.92Z"/><ellipse class="cls-8" cx="80.03" cy="59" rx="17.5" ry="6"/><path class="cls-5" d="M81.36,91c0,.27-.61.48-1.33.48s-1.34-.22-1.34-.49h0"/><polyline class="cls-9" points="80.35 63.95 91.33 41.87 99.7 38.12"/><rect class="cls-4" x="76.68" y="114" width="6.67" height="35.73"/></g><circle class="cls-10" cx="80" cy="79.86" r="69.87"/></svg>