<svg id="Layer_2" data-name="Layer 2" xmlns="http://www.w3.org/2000/svg" xmlns:xlink="http://www.w3.org/1999/xlink" viewBox="0 0 160 160"><defs><style>.cls-1,.cls-4,.cls-8{fill:none;}.cls-2,.cls-6{fill:#fff;}.cls-3{clip-path:url(#clip-path);}.cls-4,.cls-5,.cls-6,.cls-7{stroke:#000;}.cls-4,.cls-5,.cls-6,.cls-7,.cls-8{stroke-miterlimit:10;}.cls-5{fill:url(#Безымянный_градиент_9);}.cls-7{fill:url(#Безымянный_градиент_9-2);}.cls-8{stroke-width:8px;stroke:url(#linear-gradient);}</style><clipPath id="clip-path"><circle class="cls-1" cx="81.72" cy="79.84" r="69.87"/></clipPath><linearGradient id="Безымянный_градиент_9" x1="44" y1="127.95" x2="131.38" y2="127.95" gradientUnits="userSpaceOnUse"><stop offset="0" stop-color="#cbc38c"/><stop offset="0.49" stop-color="#ebe8a9"/><stop offset="1" stop-color="#8e8c60"/></linearGradient><linearGradient id="Безымянный_градиент_9-2" x1="10.4" y1="107.09" x2="59.85" y2="107.09" xlink:href="#Безымянный_градиент_9"/><linearGradient id="linear-gradient" x1="29.49" y1="132.08" x2="133.95" y2="27.61" gradientUnits="userSpaceOnUse"><stop offset="0" stop-color="#707070"/><stop offset="0.5" stop-color="#ebebeb"/><stop offset="1" stop-color="#919394"/></linearGradient></defs><title>МШ Иконки cs6 </title><circle class="cls-2" cx="81.72" cy="79.84" r="69.87"/><g class="cls-3"><path d="M118.79,73c4.49-20.05-1.43-29.12-13.65-31.55C91.47,35,78.36,34.34,66.51,46.57,61,52.42,62,60.08,63.14,73h3.54s.71,10.46,1.06,9.39,1.42-11,1.42-11c19-.51,30.69-7.27,37.4-18.25-.22,5.4,1.17,11.14,5.85,17.55,0,0-.18,13.27.18,11.77s2.48-10,2.48-10Z"/><path class="cls-4" d="M118.79,73c6.24,5.13,2,11.07-4.43,17.19-6.72,12.06-14.19,21.63-24.81,20.91-8.92.7-16.63-7.42-23.57-21.27-7-7.5-8.07-13.15-2.84-16.84"/><path class="cls-5" d="M131.38,129c0-.71-9.52-8.68-9.52-8.68l-17.6-6.38v-9.32l-7.34,5.24-7.37,1.25-8.11-1.89-4.51-3.38v7L51.09,123.67l-7.09,8,10.28,15.42,49.62,4.25Z"/><path class="cls-6" d="M77.83,38.73,69.52,49.41s-4.25,11.17-4.79,11.7-4.89,6.2-4.89,6.2-6.45,1.06-6.45,0S57.65,48,57.65,48L69.7,38.73l8.13-1.81Z"/><path class="cls-7" d="M59.85,67.31,39.57,101.87l-8,10.65,19.55,11.15s4.61,23,3.19,23.39-12.58,4.25-12.58,4.25L15.82,128,10.4,104.59l20.4-22,23.47-19.7Z"/></g><circle class="cls-8" cx="81.72" cy="79.84" r="69.87"/></svg>