<?xml version="1.0" encoding="utf-8"?>
<!-- Generator: Adobe Illustrator 19.2.1, SVG Export Plug-In . SVG Version: 6.00 Build 0)  -->
<svg version="1.1" id="Layer_2" xmlns="http://www.w3.org/2000/svg" xmlns:xlink="http://www.w3.org/1999/xlink" x="0px" y="0px"
	 viewBox="0 0 622.2 356.2" style="enable-background:new 0 0 622.2 356.2;" xml:space="preserve">
<style type="text/css">
	.st0{fill:none;stroke:#FFFFFF;stroke-width:2;stroke-miterlimit:10;}
	.st1{fill:#FFFFFF;}
	.st2{fill:none;stroke:#FFFFFF;stroke-miterlimit:10;}
	.st3{fill:none;stroke:#FFFFFF;stroke-miterlimit:10;stroke-dasharray:5.86,5.86;}
	.st4{fill:none;stroke:url(#SVGID_1_);stroke-width:5;stroke-miterlimit:10;}
	.st5{fill:url(#SVGID_2_);}
	.st6{fill:none;stroke:url(#SVGID_3_);stroke-width:5;stroke-miterlimit:10;}
	.st7{fill:url(#SVGID_4_);}
	.st8{fill:url(#SVGID_5_);stroke:#FFFFFF;stroke-miterlimit:10;}
	.st9{fill:url(#SVGID_6_);stroke:#FFFFFF;stroke-miterlimit:10;}
	.st10{fill:url(#SVGID_7_);stroke:#FFFFFF;stroke-miterlimit:10;}
	.st11{fill:url(#SVGID_8_);stroke:#FFFFFF;stroke-miterlimit:10;}
	.st12{fill:url(#SVGID_9_);stroke:#FFFFFF;stroke-miterlimit:10;}
	.st13{fill:none;stroke:#FFFFFF;stroke-width:2;stroke-miterlimit:10;stroke-dasharray:12.23,12.23;}
	.st14{stroke:#FFFFFF;stroke-miterlimit:10;}
</style>
<title>IC-</title>
<line class="st0" x1="10.3" y1="344.4" x2="565" y2="39.2"/>
<polygon class="st1" points="557.7,50.4 556.2,49.1 564.8,39.2 551.9,41.3 551.6,39.3 570,36.4 "/>
	<text x="100" y="45" style="fill: #fff; font-weight: 400; font-size: 14px; font-family: Roboto, sans-serif">Я пошел на мастер класс</text>
	<text x="100" y="65" style="fill: #fff; font-weight: 400; font-size: 14px; font-family: Roboto, sans-serif">Остался дома</text>
<line class="st2" x1="85.3" y1="42.1" x2="38.3" y2="42.1">
</line>
<line class="st2" x1="85.3" y1="60.8" x2="82.3" y2="60.8"/>
<line class="st3" x1="76.4" y1="60.8" x2="44.2" y2="60.8"/>
<line class="st2" x1="41.3" y1="60.8" x2="38.3" y2="60.8"/>
<linearGradient id="SVGID_1_" gradientUnits="userSpaceOnUse" x1="7.29" y1="801.4016" x2="12.29" y2="801.4016" gradientTransform="matrix(1 0 0 1 0 -608.2016)">
	<stop  offset="0" style="stop-color:#D7CD90"/>
	<stop  offset="0.52" style="stop-color:#F8F1B3"/>
	<stop  offset="1" style="stop-color:#A59D68"/>
</linearGradient>
<line class="st4" x1="9.8" y1="349.6" x2="9.8" y2="36.8"/>
<linearGradient id="SVGID_2_" gradientUnits="userSpaceOnUse" x1="7.29" y1="648.5016" x2="12.29" y2="648.5016" gradientTransform="matrix(1 0 0 1 0 -608.2016)">
	<stop  offset="0" style="stop-color:#D7CD90"/>
	<stop  offset="0.52" style="stop-color:#F8F1B3"/>
	<stop  offset="1" style="stop-color:#A59D68"/>
</linearGradient>
<polygon class="st5" points="19.6,44.7 17.9,46.4 9.8,37.7 1.7,46.4 0,44.7 9.8,34.2 "/>
<linearGradient id="SVGID_3_" gradientUnits="userSpaceOnUse" x1="6.8" y1="954.6016" x2="619.6" y2="954.6016" gradientTransform="matrix(1 0 0 1 0 -608.2016)">
	<stop  offset="0" style="stop-color:#D7CD90"/>
	<stop  offset="0.52" style="stop-color:#F8F1B3"/>
	<stop  offset="1" style="stop-color:#A59D68"/>
</linearGradient>
<line class="st6" x1="6.8" y1="346.4" x2="619.6" y2="346.4"/>
<linearGradient id="SVGID_4_" gradientUnits="userSpaceOnUse" x1="6.79" y1="954.6016" x2="619.6299" y2="954.6016" gradientTransform="matrix(1 0 0 1 0 -608.2016)">
	<stop  offset="0" style="stop-color:#D7CD90"/>
	<stop  offset="0.52" style="stop-color:#F8F1B3"/>
	<stop  offset="1" style="stop-color:#A59D68"/>
</linearGradient>
<polygon class="st7" points="611.7,356.2 610,354.5 618.7,346.4 610,338.4 611.7,336.6 622.2,346.4 "/>
<linearGradient id="SVGID_5_" gradientUnits="userSpaceOnUse" x1="100.1072" y1="891.9037" x2="115.0362" y2="906.8428" gradientTransform="matrix(1 0 0 1 0 -608.2016)">
	<stop  offset="0" style="stop-color:#D5D5D5"/>
	<stop  offset="0.52" style="stop-color:#F1F1F1"/>
	<stop  offset="1" style="stop-color:#A5A5A5"/>
</linearGradient>
<circle class="st8" cx="107.6" cy="291.2" r="10.6" />
<line class="st2" x1="107.6" y1="280.6" x2="107.6" y2="224.8" />
<linearGradient id="SVGID_6_" gradientUnits="userSpaceOnUse" x1="195.8401" y1="838.4367" x2="210.7691" y2="853.3757" gradientTransform="matrix(1 0 0 1 0 -608.2016)">
	<stop  offset="0" style="stop-color:#D5D5D5"/>
	<stop  offset="0.52" style="stop-color:#F1F1F1"/>
	<stop  offset="1" style="stop-color:#A5A5A5"/>
</linearGradient>
<circle class="st9" cx="203.3" cy="237.7" r="10.6"/>
<line class="st2" x1="203.3" y1="227.1" x2="203.3" y2="171.3"/>
<linearGradient id="SVGID_7_" gradientUnits="userSpaceOnUse" x1="298.3476" y1="781.2491" x2="313.2816" y2="796.1832" gradientTransform="matrix(1 0 0 1 0 -608.2016)">
	<stop  offset="0" style="stop-color:#D5D5D5"/>
	<stop  offset="0.52" style="stop-color:#F1F1F1"/>
	<stop  offset="1" style="stop-color:#A5A5A5"/>
</linearGradient>
<circle class="st10" cx="305.8" cy="180.5" r="10.6"/>
<line class="st2" x1="305.8" y1="170" x2="305.8" y2="114.1"/>
<linearGradient id="SVGID_8_" gradientUnits="userSpaceOnUse" x1="401.6047" y1="725.3063" x2="416.5387" y2="740.2402" gradientTransform="matrix(1 0 0 1 0 -608.2016)">
	<stop  offset="0" style="stop-color:#D5D5D5"/>
	<stop  offset="0.52" style="stop-color:#F1F1F1"/>
	<stop  offset="1" style="stop-color:#A5A5A5"/>
</linearGradient>
<circle class="st11" cx="409.1" cy="124.6" r="10.6"/>
<line class="st2" x1="409.1" y1="114" x2="409.1" y2="58.2"/>
<linearGradient id="SVGID_9_" gradientUnits="userSpaceOnUse" x1="507.1047" y1="666.8063" x2="522.0386" y2="681.7402" gradientTransform="matrix(1 0 0 1 0 -608.2016)">
	<stop  offset="0" style="stop-color:#D5D5D5"/>
	<stop  offset="0.52" style="stop-color:#F1F1F1"/>
	<stop  offset="1" style="stop-color:#A5A5A5"/>
</linearGradient>
<circle class="st12" cx="514.6" cy="66.1" r="10.6"/>
<line class="st2" x1="514.6" y1="55.9" x2="514.6" y2="0"/>
<path class="st0" d="M10.3,344.4c0,0,2.1-0.6,5.8-1.6"/>
<path class="st13" d="M27.9,339.8c32.7-8.4,102.5-25.2,137.4-25.2h392.2"/>
<path class="st0" d="M563.7,314.6h6"/>
<polygon class="st1" points="557.8,320.9 557.1,319 569.4,314.6 557.1,310.1 557.8,308.2 575.3,314.6 "/>
<circle class="st14" cx="343.1" cy="314.6" r="10.6"/>
<line class="st2" x1="343.1" y1="304" x2="343.1" y2="248.2"/>
<circle class="st14" cx="509" cy="314.6" r="10.6"/>
<line class="st2" x1="509" y1="304" x2="509" y2="248.2"/>
</svg>
