<svg id="Layer_2" data-name="Layer 2" xmlns="http://www.w3.org/2000/svg" xmlns:xlink="http://www.w3.org/1999/xlink" viewBox="0 0 160 160"><defs><style>.cls-1,.cls-4,.cls-6{fill:none;}.cls-2{fill:#fff;}.cls-3{clip-path:url(#clip-path);}.cls-4,.cls-5{stroke:#000;}.cls-4,.cls-5,.cls-6{stroke-miterlimit:10;}.cls-5{fill:url(#Безымянный_градиент_9);}.cls-6{stroke-width:8px;stroke:url(#linear-gradient);}</style><clipPath id="clip-path"><circle class="cls-1" cx="80" cy="80" r="69.87"/></clipPath><linearGradient id="Безымянный_градиент_9" x1="-15.91" y1="93.58" x2="65.57" y2="93.58" gradientUnits="userSpaceOnUse"><stop offset="0" stop-color="#cbc38c"/><stop offset="0.49" stop-color="#ebe8a9"/><stop offset="1" stop-color="#8e8c60"/></linearGradient><linearGradient id="linear-gradient" x1="27.77" y1="132.23" x2="132.23" y2="27.77" gradientUnits="userSpaceOnUse"><stop offset="0" stop-color="#707070"/><stop offset="0.5" stop-color="#ebebeb"/><stop offset="1" stop-color="#919394"/></linearGradient></defs><title>МШ Иконки cs6 </title><circle class="cls-2" cx="80" cy="80" r="69.87"/><g class="cls-3"><path class="cls-4" d="M75.1,116.91a19.1,19.1,0,0,1-10.39,1.66L56,119.78c-4.19,3.24-6.91,9.31-8.29,16.86-2,5-.68,9.44,1.92,13.79l7.1,9.72c-5.09,1.61-14.21-.3-20.12-8.88-2.3-4.11-10.28-10.77-15.16-10.3a32.19,32.19,0,0,0,3.67-4.62H38.76s-1.32-5.7-3.51-13.45,0-17.15,0-17.15L45.49,89.09,57,64.3l7.32,4.31L65.92,79.9c.93.32,3.38-1,4.7-2.5A9.69,9.69,0,0,1,66.93,82l8.18,7.76a2.76,2.76,0,0,1,.46,3.35l-2.9,2.41L73,98.33c1.23.38,2.2.9,2.34,1.89.32,1-.19,1.94-1.07,2.86a3.52,3.52,0,0,1,1.82,2c.26,1.29-.54,2.23-2.25,2.89C76.73,110.65,77.4,115.1,75.1,116.91Z"/><path class="cls-4" d="M162.64,107.61c-18,4.88-27.39,19.56-34.78,36.48.94-6.74,1.8-13.38.82-17.52,0,0-2.08-3.31-2.32-4-.06-.17-.56-4.83-1.17-9a6,6,0,0,0-7.05-5l-15.52,3A3.81,3.81,0,0,1,99,108.85l-1-7.38-2.89-2.18,1.49-2.85-2.4-1.6,1.53-3.24-.24-1.75-7.19-.77c-.82-.82-1-2.1-.53-3.76l6.8-15c-2.72-5-2.64-11.68-1.42-19h0a9.06,9.06,0,0,1-4.28-4.93c1.24,1.38,2.45,2.41,3.56,2.31a11.93,11.93,0,0,1-.76-5.5c.28,2,.64,3.74,1.39,4.67a17,17,0,0,1,6.28-6.33,71.31,71.31,0,0,1,18.84-5.13c8.63-1.14,15.64-.37,21.18,2.15-.46-1.53-2.4-3-4.52-4.45,1.27.36,6.27,3.51,6.1,4.1,2.37-.45,7.17,1.47,7.54,2.27a16.13,16.13,0,0,0-7.37-1c8.88,1.89,13,8.89,13.89,19.25,1.39,10.86-.37,20.16-5.83,27.59C149.92,97.16,155.29,103.39,162.64,107.61Z"/><path d="M148.67,86.25l4.89,13.38c-8.57-2.27-17.17-7.25-25.79-15.89-1.31-1.14-.43-3.9-.22-5.43,1.66-12.48-7.63-13.73-8.78-7V79.2c0,1.32-3.29,0-3.29,0l-5.92-10.52-3.95-13.15L92.69,51.31h0a9.06,9.06,0,0,1-4.28-4.93c1.24,1.38,2.45,2.41,3.56,2.31a11.93,11.93,0,0,1-.76-5.5c.28,2,.64,3.74,1.39,4.67a17,17,0,0,1,6.28-6.33,71.31,71.31,0,0,1,18.84-5.13c8.63-1.14,15.64-.37,21.18,2.15-.46-1.53-2.4-3-4.52-4.45,1.27.36,6.27,3.51,6.1,4.1,2.37-.45,7.17,1.47,7.54,2.27a16.13,16.13,0,0,0-7.37-1c8.88,1.89,13,8.89,13.89,19.25C155.88,69.52,154.13,78.82,148.67,86.25Z"/><path class="cls-5" d="M64.35,68.6,57,64.3,45.49,89.09,35.26,105.75s-2.19,9.41,0,17.15,3.51,13.45,3.51,13.45H25.16a22.84,22.84,0,0,0,2.92-19.62,38.27,38.27,0,0,1-19.63-14.4C4.5,95.66,3.15,88.18,3.74,80.12c-3.41,1-6.23,2.63-5.88,7.6,5.88,9.4,11.57,18.77,13,27.56C11.35,128,6.06,135-7.21,134c8.92-3.76,12.39-10,4.71-21.32-4.7-5.27-8.9-10.75-11.63-16.83-4-13.43-1.33-21.68,8.89-24.11,3.95-.49,7.32,1.08,10.41,3.72C10,61.81,19.51,54,33.43,51.65c13.64-2.27,24.79-.2,31.16,9.39A7.07,7.07,0,0,1,64.35,68.6Z"/><path class="cls-4" d="M22.12,139l3.05-20.44a23.8,23.8,0,0,1-3,20.44Z"/></g><circle class="cls-6" cx="80" cy="80" r="69.87"/></svg>