<?xml version="1.0" encoding="utf-8"?>
<!-- Generator: Adobe Illustrator 16.0.0, SVG Export Plug-In . SVG Version: 6.00 Build 0)  -->
<!DOCTYPE svg PUBLIC "-//W3C//DTD SVG 1.1//EN" "http://www.w3.org/Graphics/SVG/1.1/DTD/svg11.dtd">
<svg version="1.1" id="Layer_1" xmlns="http://www.w3.org/2000/svg" xmlns:xlink="http://www.w3.org/1999/xlink" x="0px" y="0px"
	 width="170.079px" height="85.039px" viewBox="0 0 170.079 85.039" enable-background="new 0 0 170.079 85.039"
	 xml:space="preserve">
<g>
	<g>
		<path fill="#FFFFFF" d="M71.387,43.864v9.548h-3.936V33.116h4.271l2.206,8.599l2.205-8.599h4.3v20.296h-3.937v-9.548l-2.568,8.096
			L71.387,43.864z"/>
		<path fill="#FFFFFF" d="M94.808,33.116l-4.327,17.839c-0.335,1.535-0.949,2.457-2.987,2.457h-3.881v-3.769h2.736
			c0.419,0,0.614-0.224,0.446-0.698l-4.69-15.83h4.299l2.457,10.246l1.898-10.246H94.808z"/>
		<path fill="#FFFFFF" d="M103.237,33.116h4.076v8.738h0.559l2.771-8.738h3.909l-2.826,9.352l3.182,10.944h-4.494l-2.262-8.432
			h-0.838v8.432h-4.076V44.98H102.4l-2.261,8.432h-4.495l3.183-10.944l-2.812-9.352h3.892l2.772,8.738h0.559V33.116z"/>
		<path fill="#FFFFFF" d="M119.399,53.412c-2.316,0-3.1-0.838-3.1-3.07V35.6c0-1.591,1.09-2.484,2.457-2.484h5.947v3.769h-3.881
			c-0.279,0-0.362,0.14-0.362,0.391v11.978c0,0.251,0.083,0.391,0.362,0.391h3.881v3.769H119.399z"/>
		<path fill="#FFFFFF" d="M130.232,41.854h0.558l2.785-8.738h3.892l-2.823,9.352l3.183,10.944h-4.495l-2.262-8.432h-0.837v8.432
			h-4.134V33.116h4.134V41.854z"/>
		<path fill="#FFFFFF" d="M142.96,50.899l-0.362,2.513h-4.075l3.656-20.296h4.327l3.658,20.296h-4.076l-0.364-2.513H142.96z
			 M143.408,47.688h1.871l-0.922-7.23L143.408,47.688z"/>
		<path fill="#FFFFFF" d="M151.278,35.824c0-1.814,0.895-2.708,2.708-2.708h7.706v20.296h-3.965v-6.394h-0.53
			c-0.753,0-0.921,0.698-1.089,1.341l-1.229,5.053h-4.131l1.312-5.109c0.14-0.614,0.446-1.256,1.089-1.479
			c-1.005,0-1.871-0.669-1.871-1.703V35.824z M155.661,36.662c-0.279,0-0.391,0.167-0.391,0.418v6.197
			c0,0.308,0.084,0.42,0.391,0.42h2.066v-7.036H155.661z"/>
		<path fill="#FFFFFF" d="M84.257,79.471H67.451V59.174h4.132v16.527h2.206V59.174h4.131v16.527h2.206V59.174h4.132V79.471z"/>
		<path fill="#FFFFFF" d="M110.523,76.595c0,1.536-0.614,2.876-2.876,2.876h-4.746c-2.261,0-2.875-1.34-2.875-2.876V61.799
			c0-1.592,0.81-2.625,2.708-2.625h5.081c1.898,0,2.708,1.033,2.708,2.625V76.595z M104.465,62.72c-0.279,0-0.363,0.14-0.363,0.391
			v12.396c0,0.307,0.056,0.419,0.391,0.419h1.535c0.336,0,0.392-0.112,0.392-0.419V63.11c0-0.251-0.084-0.391-0.363-0.391H104.465z"
			/>
		<path fill="#FFFFFF" d="M124.034,79.471h-4.132V62.942h-2.205v16.528h-6.059v-3.77h1.927V59.174h10.469V79.471z"/>
		<path fill="#FFFFFF" d="M130.147,76.958l-0.362,2.513h-4.078l3.658-20.297h4.329l3.656,20.297h-4.075l-0.364-2.513H130.147z
			 M130.594,73.746h1.871l-0.922-7.23L130.594,73.746z"/>
	</g>
	<path fill="#FFFFFF" d="M91.248,67.912h0.558l2.786-8.738h3.892l-2.824,9.353l3.183,10.944h-4.495l-2.262-8.432h-0.837v8.432
		h-4.132V59.174h4.132V67.912z"/>
</g>
<linearGradient id="SVGID_1_" gradientUnits="userSpaceOnUse" x1="17.1851" y1="40.8525" x2="62.0859" y2="40.8525">
	<stop  offset="0.0078" style="stop-color:#FFF7BB"/>
	<stop  offset="0.5168" style="stop-color:#918A58"/>
	<stop  offset="0.6173" style="stop-color:#978F5C"/>
	<stop  offset="0.7431" style="stop-color:#A89F69"/>
	<stop  offset="0.8817" style="stop-color:#C5BA80"/>
	<stop  offset="1" style="stop-color:#E6DB9D"/>
</linearGradient>
<polygon fill="url(#SVGID_1_)" points="22.346,52.006 17.185,49.038 17.185,27.628 22.411,24.66 25.764,33.885 29.184,20.725 
	34.409,17.693 34.409,61.884 35.672,62.787 56.86,50.594 56.86,26.08 44.925,19.048 44.925,13.048 62.086,23.047 62.086,53.433 
	35.764,68.657 29.248,64.915 29.248,35.724 25.764,44.595 22.346,35.724 "/>
<linearGradient id="SVGID_2_" gradientUnits="userSpaceOnUse" x1="9.4429" y1="35.7236" x2="54.376" y2="35.7236">
	<stop  offset="0" style="stop-color:#FFFFFF"/>
	<stop  offset="1" style="stop-color:#A1A0A0"/>
</linearGradient>
<polygon fill="url(#SVGID_2_)" points="50.804,25.515 50.78,45.174 48.177,46.633 48.177,23.975 44.991,22.099 44.991,48.42 
	42.172,50.002 42.179,11.623 35.672,7.887 9.443,22.918 9.443,53.367 26.604,63.561 26.604,57.367 14.604,50.529 14.604,26.144 
	35.764,13.951 37.141,14.654 37.141,59.023 54.376,48.885 54.376,27.614 "/>
</svg>
