<svg id="Layer_2" data-name="Layer 2" xmlns="http://www.w3.org/2000/svg" xmlns:xlink="http://www.w3.org/1999/xlink" viewBox="0 0 160 160"><defs><style>.cls-1,.cls-4,.cls-6{fill:none;}.cls-2{fill:#fff;}.cls-3{clip-path:url(#clip-path);}.cls-4,.cls-5{stroke:#000;}.cls-4,.cls-5,.cls-6{stroke-miterlimit:10;}.cls-5{fill:url(#Безымянный_градиент_9);}.cls-6{stroke-width:8px;stroke:url(#linear-gradient);}</style><clipPath id="clip-path"><circle class="cls-1" cx="80" cy="79.84" r="69.87"/></clipPath><linearGradient id="Безымянный_градиент_9" x1="19.53" y1="140.77" x2="116.15" y2="140.77" gradientUnits="userSpaceOnUse"><stop offset="0" stop-color="#cbc38c"/><stop offset="0.49" stop-color="#ebe8a9"/><stop offset="1" stop-color="#8e8c60"/></linearGradient><linearGradient id="linear-gradient" x1="27.77" y1="132.08" x2="132.23" y2="27.61" gradientUnits="userSpaceOnUse"><stop offset="0" stop-color="#707070"/><stop offset="0.5" stop-color="#ebebeb"/><stop offset="1" stop-color="#919394"/></linearGradient></defs><title>МШ Иконки cs6 </title><circle class="cls-2" cx="80" cy="79.84" r="69.87"/><g class="cls-3"><path d="M33.44,80c-5-22.17,1.58-32.2,15.09-34.89C63.65,38,78.16,37.25,91.26,50.78c6.08,6.47,5,14.93,3.72,29.2H91.06s-.78,11.56-1.18,10.39-1.57-12.15-1.57-12.15c-21-.56-33.94-8-41.35-20.19.25,6-1.29,12.32-6.47,19.4,0,0,.2,14.67-.2,13s-2.74-11.06-2.74-11.06Z"/><path class="cls-4" d="M33.44,80c-6.9,5.68-2.25,12.25,4.9,19,7.43,13.34,15.7,23.92,27.44,23.13,9.86.77,18.39-8.2,26.07-23.52C99.61,90.3,100.78,84.06,95,80"/><path class="cls-5" d="M19.53,141.91c0-.78,10.53-9.6,10.53-9.6l19.46-7.06V114.94l8.12,5.79,8.15,1.38,9-2.09,5-3.74v7.79l28.57,12,7.84,8.82L104.78,161.9l-54.88,4.7Z"/><path class="cls-4" d="M137.46,14.49a11.67,11.67,0,0,1-13.11,11.62A15.3,15.3,0,0,1,97.8,28.3,18.1,18.1,0,1,1,73.65,1.5a7.72,7.72,0,0,1-.27-2,8.27,8.27,0,0,1,8.28-8.28,8.19,8.19,0,0,1,4.2,1.15,15.29,15.29,0,0,1,12.88-7A15.24,15.24,0,0,1,110.1-9.66a11.59,11.59,0,0,1,5.68-1.47A11.71,11.71,0,0,1,127.5.58a11.25,11.25,0,0,1-.23,2.3A11.71,11.71,0,0,1,137.46,14.49Z"/><path class="cls-4" d="M110.12,46.23a3.68,3.68,0,0,1-3.68,3.68,3.63,3.63,0,0,1-1-.15,4.54,4.54,0,0,1-7.53.92,6.29,6.29,0,1,1-4.56-10.74,4.54,4.54,0,0,1,7.48-1.36,3.68,3.68,0,0,1,5.63,3.11,3.46,3.46,0,0,1-.11.87h.11A3.68,3.68,0,0,1,110.12,46.23Z"/></g><circle class="cls-6" cx="80" cy="79.84" r="69.87"/></svg>