<?xml version="1.0" encoding="utf-8"?>
<!-- Generator: Adobe Illustrator 19.2.1, SVG Export Plug-In . SVG Version: 6.00 Build 0)  -->
<svg version="1.1" id="Layer_2" xmlns="http://www.w3.org/2000/svg" xmlns:xlink="http://www.w3.org/1999/xlink" x="0px" y="0px"
	 viewBox="0 0 502.6 1231.5" style="enable-background:new 0 0 502.6 1231.5;" xml:space="preserve">
<style type="text/css">
	.st0{clip-path:url(#SVGID_2_);}
	.st1{fill:none;}
	.st2{clip-path:url(#SVGID_4_);}
	.st3{fill:url(#SVGID_5_);}
	.st4{clip-path:url(#SVGID_7_);}
	.st5{clip-path:url(#SVGID_9_);}
	.st6{fill:url(#SVGID_10_);}
	.st7{clip-path:url(#SVGID_12_);}
	.st8{clip-path:url(#SVGID_14_);}
	.st9{fill:url(#SVGID_15_);}
	.st10{clip-path:url(#SVGID_17_);}
	.st11{clip-path:url(#SVGID_19_);}
	.st12{clip-path:url(#SVGID_21_);}
	.st13{fill:url(#SVGID_22_);}
	.st14{fill:#919394;}
	.st15{fill:none;stroke:#919394;stroke-miterlimit:10;}
	.st16{clip-path:url(#SVGID_24_);}
	.st17{clip-path:url(#SVGID_26_);}
	.st18{fill:url(#SVGID_27_);}
	.st19{clip-path:url(#SVGID_29_);}
	.st20{clip-path:url(#SVGID_31_);}
	.st21{fill:url(#SVGID_32_);}
	.st22{clip-path:url(#SVGID_34_);}
	.st23{clip-path:url(#SVGID_36_);}
	.st24{fill:url(#SVGID_37_);}
</style>
<title>kak eto rabotaet</title>
<g>
	<defs>
		<rect id="SVGID_1_" x="-2.1" y="1095.1" width="89.5" height="115.2"/>
	</defs>
	<clipPath id="SVGID_2_">
		<use xlink:href="#SVGID_1_"  style="overflow:visible;"/>
	</clipPath>
	<g class="st0">
		<path class="st1" d="M42.7,1181c22.7,0,41.1-18.4,41.1-41.1s-18.4-41.1-41.1-41.1s-41.1,18.4-41.1,41.1c0,0,0,0,0,0
			C1.6,1162.6,20,1181,42.7,1181"/>
	</g>
</g>
<g>
	<defs>
		<rect id="SVGID_3_" x="-2.1" y="1095.1" width="89.5" height="115.2"/>
	</defs>
	<clipPath id="SVGID_4_">
		<use xlink:href="#SVGID_3_"  style="overflow:visible;"/>
	</clipPath>
	<g class="st2">
		
			<linearGradient id="SVGID_5_" gradientUnits="userSpaceOnUse" x1="-2553.3123" y1="1178.79" x2="-2551.8423" y2="1178.79" gradientTransform="matrix(59.001 -59.001 -59.001 -59.001 220194.9375 -79912.8203)">
			<stop  offset="0" style="stop-color:#898452"/>
			<stop  offset="2.000000e-002" style="stop-color:#898452"/>
			<stop  offset="0.65" style="stop-color:#F4EEC9"/>
			<stop  offset="1" style="stop-color:#D1C778"/>
		</linearGradient>
		<path class="st3" d="M42.7,1181v-3c21.1,0,38.2-17.1,38.2-38.2c0-21.1-17.1-38.2-38.2-38.2s-38.2,17.1-38.2,38.2c0,0,0,0,0,0
			c0,21.1,17.1,38.1,38.2,38.1v5.9c-24.3,0-44-19.7-44-44l0,0c0-24.3,19.7-44,44-44s44,19.7,44,44s-19.7,44-44,44l0,0V1181z"/>
	</g>
</g>
<path d="M43.1,1112.7c1.4,0.9,2.7,1.8,4.1,2.6c1.7,1,3.4,2,5.2,2.9c2.8,1.5,5.8,2.7,8.9,3.7c1.7,0.5,3.4,0.9,5.1,1.4
	c0.9,0.1,1.5,0.9,1.4,1.7c0.2,4.2-0.1,8.4-1,12.4c-0.7,3.6-1.9,7-3.4,10.3c-1.6,3.6-3.7,7-6.1,10.2c-2.1,2.7-4.3,5.2-6.8,7.5
	c-2,1.9-4.1,3.6-6.4,5.1c-0.4,0.2-0.8,0.4-1.1,0.7h-0.8c-2.2-1.3-4.2-2.7-6-4.4c-2-1.8-3.9-3.7-5.7-5.7c-3.1-3.5-5.8-7.3-7.9-11.5
	c-1.4-2.8-2.6-5.8-3.5-8.9c-1.4-5.1-2-10.5-1.7-15.8c0-0.9,0.6-1.6,1.4-1.7c2.3-0.6,4.6-1.2,6.8-1.9c2.7-0.9,5.2-2,7.7-3.3
	c2.3-1.2,4.6-2.5,6.8-4l2-1.3L43.1,1112.7L43.1,1112.7z M20.7,1126.1c0,0.1,0,0.3,0,0.4c-0.2,8.9,2.1,17.6,6.8,25.1
	c1.9,3,4,5.9,6.5,8.5c2.5,2.8,5.4,5.3,8.4,7.5c0.2,0.2,0.6,0.2,0.8,0c0.6-0.5,1.3-0.9,1.9-1.4c2.7-2.1,5.3-4.6,7.6-7.2
	c2.6-3,4.9-6.2,6.8-9.7c1.6-2.9,2.8-5.9,3.7-9.1c0.8-3,1.4-6,1.6-9.1c0.1-1.6,0.1-3.2,0.2-4.8l-0.5-0.2c-1.4-0.4-2.8-0.7-4.1-1.2
	c-1.7-0.6-3.3-1.2-4.9-1.8s-3.3-1.5-4.9-2.3c-2.5-1.3-5-2.7-7.4-4.3c-0.2-0.2-0.5-0.2-0.6,0c-0.6,0.4-1.3,0.9-1.9,1.3
	c-2,1.1-3.9,2.3-5.9,3.3c-1.7,0.9-3.5,1.7-5.3,2.4c-1.6,0.6-3.2,1.2-4.8,1.7C23.2,1125.5,21.9,1125.8,20.7,1126.1z"/>
<path d="M61.2,1131.1c0,3-0.4,6.1-1.1,9c-0.7,2.5-1.6,4.9-2.7,7.2c-1.4,2.7-3,5.2-4.9,7.6c-1.6,2.1-3.5,4-5.5,5.7
	c-1.2,1-2.5,1.9-3.7,2.9c-0.3,0.3-0.8,0.3-1.1,0c-2.4-1.7-4.7-3.7-6.8-5.8c-2.7-2.8-5-6-6.9-9.4c-2.1-3.9-3.5-8.2-4.1-12.6
	c-0.3-2.2-0.4-4.5-0.3-6.7c0-0.2,0.1-0.4,0.3-0.5c0,0,0,0,0.1,0c3.4-0.7,6.7-1.9,9.8-3.3c2.7-1.3,5.4-2.8,7.8-4.5
	c0.3-0.3,0.8-0.3,1.1,0c2.2,1.5,4.5,2.8,6.9,4c2.2,1.1,4.5,2.1,6.9,2.8c1.3,0.4,2.6,0.7,3.9,1c0.2,0,0.4,0.2,0.4,0.4c0,0,0,0,0,0
	C61.2,1129.6,61.2,1130.4,61.2,1131.1z"/>
<g>
	<defs>
		<rect id="SVGID_6_" x="415.1" y="920.5" width="89.5" height="115.2"/>
	</defs>
	<clipPath id="SVGID_7_">
		<use xlink:href="#SVGID_6_"  style="overflow:visible;"/>
	</clipPath>
	<g class="st4">
		<path class="st1" d="M459.9,1006.3c22.7,0,41.1-18.4,41.1-41.1c0-22.7-18.4-41.1-41.1-41.1c-22.7,0-41.1,18.4-41.1,41.1
			c0,0,0,0,0,0C418.8,987.9,437.2,1006.3,459.9,1006.3"/>
	</g>
</g>
<g>
	<defs>
		<rect id="SVGID_8_" x="415.1" y="920.5" width="89.5" height="115.2"/>
	</defs>
	<clipPath id="SVGID_9_">
		<use xlink:href="#SVGID_8_"  style="overflow:visible;"/>
	</clipPath>
	<g class="st5">
		
			<linearGradient id="SVGID_10_" gradientUnits="userSpaceOnUse" x1="-2548.3025" y1="1176.734" x2="-2546.8325" y2="1176.734" gradientTransform="matrix(59.001 -59.001 -59.001 -59.001 220194.9375 -79912.8203)">
			<stop  offset="0" style="stop-color:#898452"/>
			<stop  offset="2.000000e-002" style="stop-color:#898452"/>
			<stop  offset="0.65" style="stop-color:#F4EEC9"/>
			<stop  offset="1" style="stop-color:#D1C778"/>
		</linearGradient>
		<path class="st6" d="M459.9,1006.3v-2.9c21.1,0,38.2-17.1,38.2-38.2c0-21.1-17.1-38.2-38.2-38.2c-21.1,0-38.2,17.1-38.2,38.2l0,0
			c0,21.1,17.1,38.1,38.2,38.2v5.9c-24.3,0-44-19.7-44-44l0,0c0-24.3,19.7-44,44-44s44,19.7,44,44s-19.7,44-44,44V1006.3
			L459.9,1006.3z"/>
	</g>
</g>
<path d="M435.1,972.4c1.4-9.3,6.2-17.3,9.7-25.8c1.8-4.3,5-7.1,8.4-9.7c0.8-0.7,2-0.7,2.8,0c1.6,1.2,3.3,2.3,4.8,3.6
	c1.7,1.4,1.7,1.7,0.8,3.8c-0.2,0.2-0.2,0.6,0,0.8c0.1,0.7,0.5,1.6,0.3,2.2c-0.5,0.6-1.2,1-1.9,1.2c-0.6,0.3-1.2,0.3-1.8,0.6
	c-1.5,0.9-3.3,1.2-5.1,1c-0.6,0.1-1.1,0.4-1.4,0.9c-2,3.4-3.1,7.4-3,11.4c0.1,3.6,0.4,7.3,0.6,10.9c0,0.4,0.3,0.8,0.6,1.1
	c0.4,0,0.7-0.1,1-0.4c4.8-4.4,10.1-5,15.8-2c0.1,0.1,0.3,0.1,0.5,0.2c3.2-4.3,9.2-5.2,13.5-2c1.9,1.4,3.2,3.5,3.7,5.8
	c0.1,0.3,0.2,0.6,0.3,0.9v2.7c-0.1,0.2-0.2,0.3-0.2,0.5c-1.1,5.1-4.6,8.2-9.8,8.3c-8.5,0.1-17,0.5-25.5-0.9
	c-3.8-0.7-7.6-1.7-11.4-2.9c-2-0.6-2.2-1.5-2.2-3.6c-0.1-1.6-0.2-3.1-0.5-4.6C435.1,975,435.1,973.7,435.1,972.4z"/>
<g>
	<defs>
		<rect id="SVGID_11_" x="-0.1" y="396.5" width="89.5" height="115.2"/>
	</defs>
	<clipPath id="SVGID_12_">
		<use xlink:href="#SVGID_11_"  style="overflow:visible;"/>
	</clipPath>
	<g class="st7">
		<path class="st1" d="M44.6,482.3c22.7,0,41.1-18.4,41.1-41.1s-18.4-41.1-41.1-41.1S3.5,418.5,3.5,441.2c0,0,0,0,0,0
			C3.5,463.9,21.9,482.3,44.6,482.3"/>
	</g>
</g>
<g>
	<defs>
		<rect id="SVGID_13_" x="-0.1" y="396.5" width="89.5" height="115.2"/>
	</defs>
	<clipPath id="SVGID_14_">
		<use xlink:href="#SVGID_13_"  style="overflow:visible;"/>
	</clipPath>
	<g class="st8">
		
			<linearGradient id="SVGID_15_" gradientUnits="userSpaceOnUse" x1="-2547.3723" y1="1184.6938" x2="-2545.9121" y2="1184.6938" gradientTransform="matrix(59.001 -59.001 -59.001 -59.001 220194.9375 -79912.8203)">
			<stop  offset="0" style="stop-color:#898452"/>
			<stop  offset="2.000000e-002" style="stop-color:#898452"/>
			<stop  offset="0.65" style="stop-color:#F4EEC9"/>
			<stop  offset="1" style="stop-color:#D1C778"/>
		</linearGradient>
		<path class="st9" d="M44.6,482.3v-2.9c21.1,0,38.2-17.1,38.2-38.1c0-21.1-17.1-38.2-38.1-38.2S6.5,420.2,6.5,441.2c0,0,0,0,0,0
			c0,21.1,17.1,38.1,38.2,38.2v5.9c-24.3,0-44-19.7-44-44l0,0c0-24.3,19.7-44,44-44s44,19.7,44,44s-19.7,44-44,44l0,0V482.3z"/>
	</g>
</g>
<path d="M26.5,421.3c0.1-0.3,0.3-0.7,0.4-1c0.4-1,1.5-1.7,2.6-1.6c1.7,0.1,3.4,0,5.1,0h0.7c0,0.6,0,1.2,0.1,1.7c0.4,1.9,2.1,3.1,4,3
	c2,0,4.1,0,6.2,0c1.1,0,2.2-0.1,3.3,0c2.9,0.2,4.9-1.7,4.7-4.9c2,0.1,4.1,0,6.1,0.3c1.6,0.1,2.8,1.5,2.6,3.1c0,7.8,0,15.6,0,23.5
	c0,0.1,0,0.2,0,0.2l-3.9,0.4v-18.5H30.5v31.8h18.1l0.9,4h-0.7c-6.2,0-12.3,0-18.5,0c-2,0-3.3-0.7-3.9-2.6
	C26.5,447.6,26.5,434.4,26.5,421.3z"/>
<path d="M60.3,468.9c-1.1-0.3-2.2-0.6-3.2-1c-5.2-2.4-7.4-8.6-5-13.7s8.6-7.4,13.7-5c3.2,1.5,5.4,4.4,5.9,7.9c0,0.1,0.1,0.2,0.1,0.3
	v2.3c0,0.1-0.1,0.2-0.1,0.3c-0.5,3.9-3.2,7.1-6.9,8.3c-0.7,0.2-1.5,0.4-2.2,0.6H60.3L60.3,468.9z M60.4,460.3l-2.7-2.1
	c-0.7-0.6-1.7-0.5-2.2,0.2s-0.5,1.7,0.2,2.2c0,0,0.1,0,0.1,0.1c1.2,1,2.5,2,3.7,3c0.6,0.6,1.6,0.7,2.3,0c0.1-0.1,0.2-0.2,0.2-0.3
	l6.1-6.8c0.7-0.6,0.7-1.6,0.1-2.3c0,0-0.1-0.1-0.1-0.1c-0.6-0.6-1.6-0.6-2.2,0.1c-0.1,0.1-0.1,0.1-0.2,0.2c-0.7,0.7-1.3,1.5-2,2.2
	L60.4,460.3z"/>
<path d="M45,413.2c1.3,0.4,2.2,1.6,2.2,3c0,0.6,0.4,1,1,1c0,0,0.1,0,0.1,0c0.4,0,0.8,0,1.3,0c1.3,0,2.4,1.1,2.4,2.4
	c0,1.3-1.1,2.4-2.4,2.4c-3.4,0-6.8,0-10.3,0c-1.3,0-2.4-1.1-2.4-2.4c0-1.3,1.1-2.4,2.4-2.4c0.4,0,0.8,0,1.2,0c0.6,0,1.1-0.5,1.2-1.1
	c0,0,0,0,0,0c0-1.4,0.9-2.6,2.2-2.9L45,413.2L45,413.2z M44.4,414.8c-0.7,0-1.2,0.5-1.2,1.1s0.5,1.2,1.1,1.2c0.7,0,1.2-0.5,1.2-1.1
	C45.5,415.3,45,414.8,44.4,414.8L44.4,414.8z"/>
<path d="M43.9,433.9H34c-1,0-1.2-0.2-1.2-1.2s0.2-1.3,1.2-1.3c6.6,0,13.2,0,19.9,0c0.4,0,0.8,0.2,1,0.5c0.1,0.5,0.1,1,0,1.5
	c-0.2,0.2-0.6,0.4-0.9,0.4C50.6,433.9,47.3,433.9,43.9,433.9z"/>
<path d="M43.9,441H34c-1,0-1.2-0.2-1.2-1.2s0.2-1.2,1.2-1.2c6.6,0,13.2,0,19.9,0c0.4,0,0.8,0.1,1.1,0.5c0.2,0.5,0.2,1,0,1.5
	c-0.2,0.3-0.6,0.4-0.9,0.4C50.6,441.1,47.3,441,43.9,441z"/>
<path d="M41.9,447.4h-8c-0.9,0-1.1-0.3-1.1-1.1s0.2-1.3,1.1-1.3H50c0.9,0,1.1,0.3,1,1.3c0,0.8-0.2,1.1-1.1,1.1L41.9,447.4
	L41.9,447.4z"/>
<path d="M41.2,454.6H34c-0.9,0-1.2-0.2-1.2-1.1s0.2-1.3,1.1-1.3h14.4c0.9,0,1.2,0.2,1.2,1.2s-0.2,1.2-1.1,1.2L41.2,454.6L41.2,454.6
	z"/>
<g>
	<defs>
		<path id="SVGID_16_" d="M44.6,45.5c23.2,0,42,18.9,41.9,42.1c0,23.2-18.9,42-42.1,41.9c-23.1,0-41.9-18.8-41.9-41.9
			C2.6,64.4,21.4,45.5,44.6,45.5z"/>
	</defs>
	<clipPath id="SVGID_17_">
		<use xlink:href="#SVGID_16_"  style="overflow:visible;"/>
	</clipPath>
	<g class="st10">
		<path d="M74.8,89.6l-0.2,1c-0.5,2.6-1.4,5.1-2.7,7.4c-0.8,1.3-2.4,1.8-3.8,1c-0.1,0-0.1-0.1-0.2-0.1l-0.4-0.3c0,0.3,0,0.6,0,0.8
			c0,8.2,0,16.3,0,24.5c0,0.6-0.1,1.3-0.3,1.9c-0.6,1.4-2.1,2.2-3.6,1.9c-1.5-0.3-2.5-1.5-2.6-3c0-0.3,0-0.6,0-0.8v-21.2
			c0-0.2,0-0.3,0-0.5c-0.1-0.1-0.2-0.2-0.3-0.3c-0.1,0.1-0.1,0.2-0.2,0.3c0,0.1,0,0.3,0,0.4c0,7.2,0,14.3,0,21.5
			c0.2,1.4-0.7,2.8-2,3.4c-1.7,0.7-3.6,0-4.3-1.7c-0.2-0.4-0.3-0.9-0.3-1.4c0-0.2,0-0.3,0-0.5c0-8.5,0.3-16.9-0.1-25.4
			c-0.2-5.9-0.1-11.7-0.3-17.6c0-0.3-0.1-0.5-0.4-0.5c0,0-0.1,0-0.1,0c-2.3-0.3-4.7-0.7-6.9-1.2c-1.9-0.2-3.3-1.9-3.1-3.9
			c0,0,0-0.1,0-0.1c0-0.9,0.2-1.9,0.5-2.8c0.5-1.5,1.1-2.9,1.7-4.5l-2.9-1.4l0.1-0.7c-0.5-0.2-0.9-0.4-1.3-0.6
			c-0.2-0.2-0.4-0.4-0.6-0.6c0.3,0,0.5,0,0.8,0.1c0.3,0.1,0.6,0.3,0.9,0.4c0.3,0.1,0.5,0.4,0.8,0c0.1-0.1,0.3-0.1,0.4,0
			c1,0.5,2,1,3,1.4c0.4,0.2,0.8,0.2,1.2,0.3c0.8,0,1.5,0.4,2,0.9C50,68,50.3,68,50.6,68c1.5-0.2,3,0.5,3.8,1.8
			c0.5,0.7,0.3,1.6-0.3,2c-0.3,0.2-0.6,0.3-0.9,0.3c-1.1,0.1-2.2-0.3-3.1-1l-1.2,3l2.3,0.4c0.9,0.2,1.8,0.3,2.8,0.4
			c1.2,0.2,2.4,0,3.5-0.6c1.5-0.9,1.6-0.8,2.8,0.5c0.1,0.1,0.3,0.3,0.4,0.4l0.4,0.3c0.4-0.4,0.8-0.9,1.1-1.3
			c0.3-0.4,0.8-0.6,1.3-0.3c0,0,0,0,0,0c1.7,0.7,3.4,1.7,4.9,2.9c1.9,1.3,3.5,3,4.7,5c0.9,1.5,1.4,3.1,1.7,4.8
			c0,0.2,0.1,0.4,0.1,0.6C74.8,87.9,74.8,88.7,74.8,89.6z M61.1,76.2h-0.2c-0.1,0.4-0.2,0.9-0.2,1.4c-0.5,3.1-0.9,6.2-1.4,9.3
			c0,0.2,0,0.4,0.1,0.5c0.5,0.7,1,1.4,1.6,2.2c0.5-0.7,1-1.3,1.4-2c0.2-0.3,0.3-0.6,0.2-0.9c-0.3-2.4-0.7-4.9-1.1-7.3
			C61.4,78.3,61.2,77.2,61.1,76.2z M68.3,92.6c1.1-2.6,1.4-5.1,0-7.7V92.6z"/>
		<path d="M-5.1,123.6c0.3-1.1,0.7-2.1,1.1-3.1c0.8-1.6,2-2.9,3.5-3.8c1-0.7,2-1.2,3.1-1.8c0.4-0.3,0.9-0.2,1.2,0.2c0,0,0,0,0,0.1
			c0.2,0.2,0.4,0.4,0.8,0.8c0.1-0.2,0.2-0.4,0.3-0.6c0.7-0.8,0.8-0.8,1.7-0.3c3,1.6,5.7,3.5,6.8,6.9c0,0.1,0.1,0.2,0.1,0.2
			c0,0,0,0,0.1,0c0.4-0.9,0.9-1.8,1.5-2.7c1.5-2.1,3.6-3.7,6-4.7c0.4-0.3,0.9-0.1,1.2,0.2c0,0,0,0,0,0c0.2,0.3,0.4,0.5,0.8,0.9
			c0.1-0.2,0.3-0.4,0.4-0.6c0.7-0.8,0.8-0.8,1.7-0.4c2.8,1.4,5.3,3.3,6.7,6.3c0.3,0.8,0.6,1.7,0.8,2.5c0.5-3.1,2.3-5.8,5-7.4
			c0.9-0.6,1.8-1,2.7-1.6c0.3-0.2,0.8-0.2,1,0.1c0,0,0,0.1,0.1,0.1c0.2,0.3,0.4,0.5,0.9,1c0.1-0.3,0.2-0.5,0.4-0.7
			c0.7-0.8,0.8-0.8,1.7-0.3c2.6,1.2,4.8,3.1,6.3,5.6c0.8,1.5,1.2,3.2,0.9,4.9c-1.2,0-2.3,0-3.5,0c-0.2-0.1-0.3-0.3-0.3-0.5
			c0-0.9-0.2-1.7-0.7-2.4v2.9h-4.9c0.1-0.2,0.3-0.5,0.5-0.7c0.5-0.5,0.7-1.2,0.5-1.8c-0.3-2-0.6-4.1-0.9-6.1c0-0.1-0.1-0.3-0.3-0.3
			c-0.1,0.7-0.2,1.4-0.3,2.1c-0.2,1.6-0.5,3.1-0.7,4.7c-0.1,0.5,0,0.9,0.3,1.3c0.2,0.3,0.4,0.6,0.7,0.9h-4.9v-3
			c-0.6,0.9-0.9,1.9-0.7,2.9h-7.6l-0.5-2.9h-0.3v1.7c0,1.3,0,1.3-1.3,1.3h-3.6c0-0.1,0-0.2,0-0.3c0.8-0.8,1.1-2,0.8-3.1
			c-0.4-1.7-0.5-3.5-0.8-5.2c0-0.2-0.1-0.4-0.2-0.6c-0.2,1.3-0.4,2.5-0.6,3.8c-0.1,1-0.2,2-0.5,3c-0.1,0.5,0,1.1,0.4,1.5
			c0.2,0.3,0.4,0.5,0.6,0.9H18v-3c-0.6,0.9-0.8,1.9-0.7,3h-7l-0.5-2.9H9.5c0,0.8,0,1.5,0,2.3c0.1,0.3-0.1,0.6-0.3,0.7
			c-0.1,0-0.2,0-0.3,0c-1.4,0-2.8,0-4.4,0c0.3-0.4,0.6-0.8,0.8-1.2c0.2-0.3,0.2-0.6,0.2-0.9c-0.3-2.3-0.7-4.6-1.1-7
			c-0.1,0.3-0.2,0.6-0.2,0.8c-0.3,2-0.6,4-0.9,6.1c0,0.4,0.1,0.8,0.3,1.1c0.2,0.4,0.4,0.7,0.7,1h-4.9v-3h-0.2
			c-0.1,0.5-0.3,1-0.4,1.4s-0.1,1-0.2,1.6h-3.8V123.6L-5.1,123.6z"/>
		<path d="M53.9,66c0.1-3.9,3.3-7,7.2-7s7,3.3,7,7.2s-3.3,7-7.2,7c0,0,0,0,0,0C56.9,73.2,53.8,69.9,53.9,66C53.9,66,53.9,66,53.9,66
			z"/>
		<path d="M32.9,108.4c-2.8,0-5-2.3-5-5.1c0-2.8,2.3-5,5.1-5c2.8,0,5,2.3,5,5.1c0,0,0,0,0,0C38,106.2,35.8,108.4,32.9,108.4
			C33,108.4,33,108.4,32.9,108.4z"/>
		<path d="M18.8,103.4c0,2.8-2.3,5-5.1,5s-5-2.3-5-5.1l0,0c0-2.8,2.3-5,5.1-5S18.8,100.6,18.8,103.4z"/>
		<path d="M23.3,114.3c-2.7,0.1-4.9-1.9-5.1-4.6c-0.1-2.5,1.7-4.8,4.2-5.1c2.7-0.4,5.2,1.5,5.5,4.2s-1.5,5.2-4.2,5.5
			C23.5,114.3,23.4,114.3,23.3,114.3z"/>
		<path d="M4.5,104.5c2.7,0,4.9,2.2,4.9,4.9c0,2.7-2.2,4.9-4.9,4.9s-4.9-2.2-4.9-4.9c0,0,0,0,0,0C-0.4,106.7,1.8,104.5,4.5,104.5
			C4.5,104.5,4.5,104.5,4.5,104.5z"/>
		<path d="M47.1,109.4c0,2.7-2.2,4.9-4.9,4.9c-2.7,0-4.9-2.2-4.9-4.9c0-2.7,2.2-4.9,4.9-4.9c0,0,0,0,0,0
			C44.9,104.5,47.1,106.7,47.1,109.4z"/>
		<path d="M31.5,118.5c-1.4-1.6-3.1-3-5.1-4c1.3-0.8,2.2-2.1,2.5-3.6c0-0.4,0.2-0.8,0.4-1.1c0.7-0.4,1.4-0.8,2.2-1.1
			c0.2,0,0.4,0.1,0.5,0.2c0.3,0.3,0.6,0.6,0.9,1c0.3-0.3,0.6-0.6,0.9-0.9c0.2-0.3,0.6-0.4,0.9-0.2c0.5,0.2,1,0.4,1.4,0.7
			c0.1,0.1,0.2,0.2,0.3,0.4c0.2,1.9,1.1,3.6,2.7,4.6c-1.9,0.9-3.6,2.2-4.9,3.8l-1.2-7.8h-0.2l-1.2,7.9L31.5,118.5z"/>
		<path d="M12.6,118l-4.6-3.5c1.1-0.8,1.9-1.9,2.3-3.2c0.1-0.3,0.1-0.6,0.2-0.9c0-0.3,0.1-0.6,0.2-0.9c0.5-0.3,1.1-0.6,1.7-0.8
			c0.2,0,0.3,0.1,0.5,0.3c0.3,0.3,0.6,0.6,0.9,0.9c0.3-0.2,0.5-0.4,0.7-0.7c0.2-0.4,0.8-0.6,1.2-0.3c0,0,0.1,0,0.1,0.1
			c0.4,0.2,0.7,0.3,1.1,0.6c0.2,0.1,0.4,0.3,0.4,0.6c0.2,1.8,1.1,3.4,2.6,4.4l-4.9,3.8l-1.2-7.7h-0.1L12.6,118z"/>
	</g>
</g>
<g>
	<defs>
		<rect id="SVGID_18_" x="-0.1" y="42" width="89.5" height="115.2"/>
	</defs>
	<clipPath id="SVGID_19_">
		<use xlink:href="#SVGID_18_"  style="overflow:visible;"/>
	</clipPath>
	<g class="st11">
		<path class="st1" d="M44.6,127.9c22.7,0,41.1-18.4,41.1-41.1S67.3,45.7,44.6,45.7c-22.7,0-41.1,18.4-41.1,41.1
			C3.5,109.5,21.9,127.9,44.6,127.9"/>
	</g>
</g>
<g>
	<defs>
		<rect id="SVGID_20_" x="-0.1" y="42" width="89.5" height="115.2"/>
	</defs>
	<clipPath id="SVGID_21_">
		<use xlink:href="#SVGID_20_"  style="overflow:visible;"/>
	</clipPath>
	<g class="st12">
		
			<linearGradient id="SVGID_22_" gradientUnits="userSpaceOnUse" x1="-2544.3723" y1="1187.6978" x2="-2542.9021" y2="1187.6978" gradientTransform="matrix(59.001 -59.001 -59.001 -59.001 220194.9375 -79912.8203)">
			<stop  offset="0" style="stop-color:#898452"/>
			<stop  offset="2.000000e-002" style="stop-color:#898452"/>
			<stop  offset="0.65" style="stop-color:#F4EEC9"/>
			<stop  offset="1" style="stop-color:#D1C778"/>
		</linearGradient>
		<path class="st13" d="M44.6,127.9v-2.9c21.1,0,38.2-17.1,38.2-38.2c0-21.1-17.1-38.2-38.1-38.2c-21.1,0-38.2,17.1-38.2,38.1
			c0,0,0,0,0,0c0,21.1,17.1,38.1,38.2,38.2v5.9c-24.3,0-44-19.7-44-44l0,0c0-24.3,19.7-44,44-44s44,19.7,44,44s-19.7,44-44,44V127.9
			L44.6,127.9z"/>
	</g>
</g>
<polygon class="st14" points="272.9,161.9 251.5,183.6 229.6,161.9 229.6,0 251.2,21.6 272.9,0 "/>
<polygon class="st14" points="272.9,336.6 251.5,358.2 229.6,336.6 229.6,174.7 251.2,196.3 272.9,174.7 "/>
<polygon class="st14" points="272.9,511.3 251.5,532.9 229.6,511.3 229.6,349.3 251.2,371 272.9,349.3 "/>
<polygon class="st14" points="272.9,685.9 251.5,707.6 229.6,685.9 229.6,524 251.2,545.6 272.9,524 "/>
<polygon class="st14" points="272.9,860.6 251.5,882.2 229.6,860.6 229.6,698.6 251.2,720.3 272.9,698.6 "/>
<polygon class="st14" points="272.9,1035.2 251.5,1056.9 229.6,1035.2 229.6,873.3 251.2,894.9 272.9,873.3 "/>
<polygon class="st14" points="272.9,1209.9 251.5,1231.5 229.6,1209.9 229.6,1047.9 251.2,1069.6 272.9,1047.9 "/>
<line class="st15" x1="229.6" y1="86.6" x2="89.4" y2="86.6"/>
<line class="st15" x1="413.8" y1="266.5" x2="272.9" y2="266.5"/>
<line class="st15" x1="229.6" y1="441.1" x2="89.4" y2="441.1"/>
<line class="st15" x1="413.8" y1="615.8" x2="272.9" y2="615.8"/>
<line class="st15" x1="229.6" y1="790.4" x2="89.4" y2="790.4"/>
<line class="st15" x1="413.8" y1="965.1" x2="272.9" y2="965.1"/>
<line class="st15" x1="229.6" y1="1139.7" x2="89.4" y2="1139.7"/>
<g>
	<defs>
		<rect id="SVGID_23_" x="414.1" y="219.3" width="89.5" height="115.2"/>
	</defs>
	<clipPath id="SVGID_24_">
		<use xlink:href="#SVGID_23_"  style="overflow:visible;"/>
	</clipPath>
	<g class="st16">
		<path class="st1" d="M458.9,305.2c22.7,0,41.1-18.4,41.1-41.1S481.6,223,458.9,223c-22.7,0-41.1,18.4-41.1,41.1c0,0,0,0,0,0
			C417.8,286.8,436.2,305.2,458.9,305.2"/>
	</g>
</g>
<g>
	<defs>
		<rect id="SVGID_25_" x="414.1" y="219.3" width="89.5" height="115.2"/>
	</defs>
	<clipPath id="SVGID_26_">
		<use xlink:href="#SVGID_25_"  style="overflow:visible;"/>
	</clipPath>
	<g class="st17">
		
			<linearGradient id="SVGID_27_" gradientUnits="userSpaceOnUse" x1="-2542.3625" y1="1182.6841" x2="-2540.9026" y2="1182.6841" gradientTransform="matrix(59.001 -59.001 -59.001 -59.001 220194.9375 -79912.8203)">
			<stop  offset="0" style="stop-color:#898452"/>
			<stop  offset="2.000000e-002" style="stop-color:#898452"/>
			<stop  offset="0.65" style="stop-color:#F4EEC9"/>
			<stop  offset="1" style="stop-color:#D1C778"/>
		</linearGradient>
		<path class="st18" d="M458.9,305.2v-2.9c21.1,0,38.2-17.1,38.2-38.2s-17.1-38.2-38.2-38.2c-21.1,0-38.2,17.1-38.2,38.2
			c0,21.1,17.1,38.1,38.2,38.2v5.9c-24.3,0-44-19.7-44-44l0,0c0-24.3,19.7-44,44-44s44,19.7,44,44s-19.7,44-44,44V305.2z"/>
	</g>
</g>
<path d="M450,285.3c-2-0.1-4.9-0.3-7.7-0.6c-2.3-0.2-4.5-0.9-6.5-2.1c-1.2-0.7-1.9-2-1.9-3.4c-0.1-1.7,0.7-3.3,2-4.4
	c2.2-1.9,4.6-3.4,7.3-4.4l1.4-0.6c0.9-0.4,1.6-1.3,1.7-2.3c0.3-1.1,0-2.3-0.8-3.2c-2.9-3.3-4.3-7.6-3.7-12c0.2-3.4,2.4-6.2,5.6-7.4
	c3-1.2,6.5-0.7,9.1,1.3c1.6,1.2,2.8,3,3.2,5c0.4,1.7,0.4,3.4,0.1,5.1c-0.3,1.5-0.8,2.9-1.4,4.3c-0.7,1.5-1.6,3-2.8,4.2
	c-0.6,0.8-0.8,1.9-0.5,2.9c0.1,0.3,0.2,0.6,0.3,0.9c0.3,1,1.3,1.3,2.2,1.6c3.1,1.1,5.9,2.7,8.3,4.8c1.5,1.4,2.1,3.5,1.5,5.5
	c-0.4,1.2-1.3,2.2-2.6,2.6c-1.5,0.7-3.1,1.2-4.8,1.4C456.7,285,453.4,285.3,450,285.3z"/>
<path d="M459.2,266.8c1-1.8,2.1-3.5,3-5.4c1.5-3.2,2-6.8,1.3-10.3c-0.5-2.8-1.9-5.3-3.9-7.1c-0.2-0.2-0.2-0.5-0.1-0.8
	c0.8-1.9,2.4-3.4,4.4-4.1c1.2-0.4,2.5-0.6,3.8-0.5c3.3,0.2,6,2.4,6.9,5.6c0.8,2.7,0.7,5.6-0.2,8.3c-0.6,2-1.6,3.8-3,5.4
	c-0.5,0.5-0.8,2-0.2,2.8c0.4,0.4,1,0.7,1.5,0.9c3.1,1.2,6.1,2.5,8.4,4.9c1.4,1.3,1.9,3.4,1.3,5.3c-0.4,1.1-1.3,1.9-2.4,2.3
	c-1.2,0.6-2.4,1-3.7,1.1c-1.6,0.2-3.2,0.4-4.8,0.6c-0.3,0.1-0.6-0.1-0.7-0.4c0,0,0,0,0,0c-1.2-2.4-3.2-4.4-5.6-5.6
	c-1.8-1-3.7-1.8-5.5-2.8C459.4,266.9,459.3,266.8,459.2,266.8z"/>
<g>
	<defs>
		<rect id="SVGID_28_" x="413.8" y="570.3" width="89.5" height="115.2"/>
	</defs>
	<clipPath id="SVGID_29_">
		<use xlink:href="#SVGID_28_"  style="overflow:visible;"/>
	</clipPath>
	<g class="st19">
		<path class="st1" d="M458.6,656.1c22.7,0,41.1-18.4,41.1-41.1c0-22.7-18.4-41.1-41.1-41.1c-22.7,0-41.1,18.4-41.1,41.1
			C417.5,637.7,435.9,656.1,458.6,656.1"/>
	</g>
</g>
<g>
	<defs>
		<rect id="SVGID_30_" x="413.8" y="570.3" width="89.5" height="115.2"/>
	</defs>
	<clipPath id="SVGID_31_">
		<use xlink:href="#SVGID_30_"  style="overflow:visible;"/>
	</clipPath>
	<g class="st20">
		
			<linearGradient id="SVGID_32_" gradientUnits="userSpaceOnUse" x1="-2545.3425" y1="1179.7133" x2="-2543.8726" y2="1179.7133" gradientTransform="matrix(59.001 -59.001 -59.001 -59.001 220194.9375 -79912.8203)">
			<stop  offset="0" style="stop-color:#898452"/>
			<stop  offset="2.000000e-002" style="stop-color:#898452"/>
			<stop  offset="0.65" style="stop-color:#F4EEC9"/>
			<stop  offset="1" style="stop-color:#D1C778"/>
		</linearGradient>
		<path class="st21" d="M458.6,656.1v-2.9c21.1,0,38.2-17.1,38.2-38.2c0-21.1-17.1-38.2-38.2-38.2c-21.1,0-38.1,17.1-38.2,38.1
			c0,21.1,17.1,38.1,38.2,38.2v5.9c-24.3,0-44-19.7-44-44l0,0c0-24.3,19.7-44,44-44s44,19.7,44,44s-19.7,44-44,44l0,0V656.1
			L458.6,656.1z"/>
	</g>
</g>
<path d="M437.6,636.8l-1,0.9c-0.5-0.6-1-1.2-1.5-1.7c-2.4-2.4-4.8-4.8-7.1-7.1c-1.5-1.4-1.6-3.7-0.3-5.2c0.1-0.1,0.2-0.2,0.3-0.3
	c3.4-3.4,6.9-6.8,10.4-10.3c0.7-0.8,1.8-1.2,2.8-1.1c3.3,0,6.6,0,9.8,0c1.1,0,2.2,0.4,3,1.2c2.5,2.5,5,5,7.6,7.5l0.5,0.4l6.4-6.5
	l5,5l-0.3,0.4c-2.8,2.8-5.6,5.5-8.3,8.3c-1.5,1.5-4,1.6-5.5,0.1c0,0,0,0-0.1-0.1c-1.4-1.5-2.8-2.8-4.3-4.3c-0.1-0.1-0.3-0.3-0.6-0.5
	v1.1c0,5.2-0.1,10.4,0,15.6c0.1,2.2-1.6,4-3.7,4.1c-0.1,0-0.2,0-0.4,0c-2.9-0.1-5.9,0-8.8,0c-2.1,0.1-3.8-1.5-3.9-3.6
	c0-0.1,0-0.1,0-0.2C437.6,639.3,437.6,638.1,437.6,636.8z M443.8,626.6c0,0.2,0,0.4,0,0.6c0,1.9,0,3.8,0,5.7c-0.1,1.1,0.3,2.2,1.1,3
	c1.2,1.1,1.2,3,0.1,4.1c-0.2,0.2-0.5,0.5-0.8,0.6c-0.3,0.2-0.5,0.3-0.3,0.7h8.5v-14.7L443.8,626.6L443.8,626.6z M437.6,628.5v-4.6
	l-2.3,2.3L437.6,628.5z"/>
<path d="M453.4,602.8c0,3.9-3.2,7.1-7.1,7.1c-3.9,0-7.1-3.2-7.1-7.1c0-3.8,3-7,6.9-7.1c3.9-0.1,7.2,3,7.3,6.9
	C453.4,602.7,453.4,602.7,453.4,602.8z"/>
<path d="M474.7,617.8l-4.3-4.3c1.3-1,2-2.6,3.8-3c0.1,0,0.2,0,0.2,0c1,0.3,1.2-0.4,1.6-1.1c2.8-5.2,5.7-10.4,8.5-15.6
	c0.2-0.6,0.9-0.9,1.5-0.7c0.1,0,0.2,0.1,0.3,0.2c0.6,0.3,0.8,1,0.5,1.6c0,0.1-0.1,0.1-0.1,0.2c-3,5.5-6,11-9,16.5
	c-0.2,0.3-0.3,0.7-0.1,1.1c0.3,1,0.1,2.1-0.7,2.9C476.3,616.3,475.5,617,474.7,617.8z"/>
<g>
	<defs>
		<rect id="SVGID_33_" x="-0.9" y="744.9" width="89.5" height="115.2"/>
	</defs>
	<clipPath id="SVGID_34_">
		<use xlink:href="#SVGID_33_"  style="overflow:visible;"/>
	</clipPath>
	<g class="st22">
		<path class="st1" d="M43.8,830.8c22.7,0,41.1-18.4,41.1-41.1c0-22.7-18.4-41.1-41.1-41.1c-22.7,0-41.1,18.4-41.1,41.1
			C2.7,812.4,21.1,830.8,43.8,830.8"/>
	</g>
</g>
<g>
	<defs>
		<rect id="SVGID_35_" x="-0.9" y="744.9" width="89.5" height="115.2"/>
	</defs>
	<clipPath id="SVGID_36_">
		<use xlink:href="#SVGID_35_"  style="overflow:visible;"/>
	</clipPath>
	<g class="st23">
		
			<linearGradient id="SVGID_37_" gradientUnits="userSpaceOnUse" x1="-2550.3323" y1="1181.7477" x2="-2548.8723" y2="1181.7477" gradientTransform="matrix(59.001 -59.001 -59.001 -59.001 220194.9375 -79912.8203)">
			<stop  offset="0" style="stop-color:#898452"/>
			<stop  offset="2.000000e-002" style="stop-color:#898452"/>
			<stop  offset="0.65" style="stop-color:#F4EEC9"/>
			<stop  offset="1" style="stop-color:#D1C778"/>
		</linearGradient>
		<path class="st24" d="M43.8,830.8v-2.9c21.1,0,38.2-17.1,38.2-38.2c0-21.1-17.1-38.2-38.2-38.2S5.7,768.6,5.7,789.7c0,0,0,0,0,0
			c0,21.1,17.1,38.1,38.2,38.2v5.9c-24.3,0-44-19.7-44-44l0,0c0-24.3,19.7-44,44-44s44,19.7,44,44s-19.7,44-44,44V830.8L43.8,830.8z
			"/>
	</g>
</g>
<path d="M46.5,794.7c0-1.6,0.6-3.1,1.6-4.2c0.1-0.1,0.2-0.2,0.3-0.3c1.9-1.6,2.5-4.4,1.5-6.7c-0.5-1.4-1.2-2.8-1.7-4.2
	c-0.8-1.7-1-3.6-0.5-5.4c0.4-1.5,1.7-2.6,3.3-2.7c1.4-0.2,2.8,0.5,3.5,1.8c0.7,1.3,1.1,2.7,1.2,4.2c0.4,3.7,1.5,7.4,3.3,10.6
	c1.1,1.8,1.4,3.9,0.7,5.9c-0.1,0.4-0.3,0.7-0.5,1c-2.2,2.7-4.9,4.5-8.5,4.5c-0.7,0-1.5-0.2-2.2-0.5c-1.4-0.6-1.8-1.9-1.9-3.3
	C46.5,795.3,46.5,795,46.5,794.7z"/>
<path d="M40.9,774.7c0,1.3-0.3,2.7-0.9,3.9c-0.7,1.5-1.5,3.1-2.1,4.7c-0.8,2-0.3,4.3,1.3,5.7c1.3,1.1,2,2.8,1.9,4.5
	c0,1-0.3,2.1-0.7,3c-0.9,1.5-2.5,1.7-4,1.6c-3-0.3-5.8-1.9-7.6-4.4c-1-1.3-1.3-3.1-0.7-4.7c0.2-0.8,0.6-1.6,1-2.4
	c1.4-2.4,2.5-4.9,3.1-7.6c0.3-1.5,0.6-3,1-4.5c0.2-0.8,0.6-1.6,1-2.3c0.8-1.3,2.4-2,3.9-1.5c1.5,0.2,2.6,1.4,2.8,2.9
	C40.9,774,40.9,774.5,40.9,774.7z"/>
<path d="M61,807c0.1-1.3,0.6-2.6,1.3-3.8c0.7-1,1.4-2,1.9-3.1c0.5-1.1,0.9-2.1,1.2-3.3c0.3-1.1,0.1-2.3-0.5-3.3
	c-0.4-0.7-0.8-1.4-1.1-2.1c-0.7-1.9-0.5-3.9,0.5-5.6c0.8-1.3,2.4-1.9,3.9-1.4c3.1,0.7,5,2.8,6.4,5.5c0.4,0.9,0.5,2,0.3,3
	c-0.2,1.2-0.7,2.4-1.4,3.4c-2.3,2.9-3.9,6.2-4.9,9.7c-0.4,1.3-0.9,2.5-1.6,3.6c-0.7,1.5-2.5,2.1-4,1.4c-0.1,0-0.2-0.1-0.3-0.1
	C61.4,810.2,60.9,809,61,807z"/>
<path d="M19.6,785.5c1.5,0.1,2.4,0.5,2.9,1.5c0.4,0.8,0.8,1.6,1.1,2.4c0.4,1.2,0.4,2.5-0.2,3.6c-1.4,3-0.4,5.3,1.6,7.5
	c0.8,0.9,1.7,1.8,2.5,2.7c1.1,1.2,1.8,2.7,2,4.3c0.2,1.3-0.4,2.6-1.5,3.2c-1.1,0.8-2.5,0.7-3.5-0.2c-0.8-0.7-1.4-1.4-2-2.2
	c-0.5-0.8-1-1.6-1.5-2.5c-1.2-2.3-2.8-4.4-4.8-6.2c-1.2-1-2.2-2.2-3-3.6c-0.8-1.4-0.8-3.1-0.2-4.5c0.9-2.3,2.2-4.3,4.6-5.3
	C18.3,785.9,19,785.7,19.6,785.5z"/>
<path d="M47.5,801.5c0-1.4,0.6-2.1,1.7-1.9c0.4,0.1,0.8,0.3,1.1,0.6c0.7,0.7,1.1,1.6,1.3,2.5c0.2,0.8-0.3,1.7-1.1,1.9
	c-0.3,0.1-0.7,0.1-1-0.1c-1.1-0.4-1.9-1.5-1.9-2.7C47.5,801.8,47.5,801.6,47.5,801.5z"/>
<path d="M39.9,799.9c0,1.7-0.8,3-2,3.3c-0.8,0.3-1.7,0-2-0.8c-0.2-0.4-0.2-0.7,0-1.1c0.2-0.9,0.7-1.8,1.4-2.4
	c0.5-0.6,1.3-0.7,1.9-0.4C39.7,798.8,40,799.3,39.9,799.9z"/>
<path d="M65.6,782.4c0-0.9,0.3-1.8,0.9-2.4c0.3-0.4,0.8-0.6,1.2-0.8c0.7-0.3,1.5,0.1,1.8,0.8c0.1,0.3,0.1,0.7,0,1
	c-0.3,1-0.9,1.9-1.7,2.5c-0.4,0.4-1,0.5-1.6,0.2C65.7,783.5,65.5,782.9,65.6,782.4z"/>
<path d="M17.8,780.7c0.4,0.1,0.8,0.3,1.1,0.5c0.8,0.6,1.4,1.4,1.6,2.4c0.1,0.5,0,1-0.4,1.3c-0.4,0.3-1,0.4-1.5,0.2
	c-1-0.4-1.8-1.1-2.2-2c-0.4-0.7-0.2-1.6,0.5-2.1C17.1,780.7,17.4,780.7,17.8,780.7z"/>
<path d="M55,802.1c0,0.6-0.3,1.2-0.9,1.5c-0.6,0.2-1.3,0-1.6-0.6c-0.5-0.6-0.7-1.5-0.4-2.2c0.2-0.4,0.5-0.7,0.9-0.9
	c0.5-0.2,1.1,0,1.3,0.5C54.6,800.9,54.9,801.5,55,802.1z"/>
<path d="M35.5,800.4c-0.1,0.7-0.5,1.3-1.2,1.6c-0.5,0.3-1.2,0.2-1.6-0.4c-0.1-0.1-0.1-0.3-0.2-0.4c-0.1-0.6,0-1.1,0.2-1.7
	c0.2-0.8,0.9-1.2,1.7-1.1C35.1,798.6,35.5,799.2,35.5,800.4z"/>
<path d="M72.5,781.8c-0.3,0.7-0.6,1.4-1,2c-0.3,0.4-0.8,0.6-1.3,0.4c-0.5-0.2-0.7-0.6-0.7-1.1c-0.1-0.9,0.3-1.8,1.1-2.3
	c0.3-0.2,0.7-0.2,1.1-0.1C72,781.1,72.3,781.5,72.5,781.8z"/>
<path d="M16.7,785.1c0.1,0.5-0.2,1.1-0.7,1.2c-0.3,0.1-0.7,0-0.9-0.2c-0.8-0.4-1.3-1.2-1.4-2.1c-0.1-0.5,0.3-1,0.9-1.1
	c0.2,0,0.3,0,0.5,0.1C16,783.3,16.7,784.2,16.7,785.1z"/>
<path d="M55,799.8c-0.1-0.5,0.3-1,0.9-1.1c0,0,0.1,0,0.1,0c0.8,0,1.5,0.7,1.4,1.5c0,0,0,0,0,0c0,0.6-0.4,1.2-1,1.3
	C55.6,801.4,55,800.7,55,799.8z"/>
<path d="M32.5,798.3c0,0.9-0.6,1.6-1.5,1.7c-0.6,0-1-0.6-1-1.2c0,0,0,0,0,0c0-0.8,0.6-1.5,1.4-1.5c0.5-0.1,1,0.3,1.1,0.9
	C32.5,798.2,32.5,798.3,32.5,798.3z"/>
<path d="M71.9,784.7c0-0.8,0.7-1.5,1.5-1.6c0.5,0.1,0.8,0.5,0.8,1c0,0,0,0.1,0,0.1c0,0.8-0.6,1.4-1.3,1.5c-0.5,0-0.9-0.3-0.9-0.8
	C71.9,784.9,71.9,784.8,71.9,784.7z"/>
<path d="M14.7,787.3c0,0.5-0.5,0.9-1,0.9c-0.8-0.1-1.4-0.8-1.4-1.6c-0.1-0.5,0.2-0.9,0.7-0.9c0.1,0,0.1,0,0.2,0
	C14,785.8,14.6,786.5,14.7,787.3z"/>
<path d="M58.4,799.6c-0.7-0.1-1.2-0.7-1.1-1.3c0-0.5,0.3-0.9,0.8-0.9c0,0,0,0,0,0c0.7,0.1,1.1,0.6,1.2,1.3
	C59.4,799.2,59,799.6,58.4,799.6C58.5,799.6,58.5,799.6,58.4,799.6z"/>
<path d="M30.3,796.8c0,0.7-0.6,1.2-1.2,1.3c-0.5,0-0.9-0.5-0.8-1c0,0,0,0,0,0c0-0.7,0.5-1.2,1.2-1.3
	C29.9,795.9,30.3,796.3,30.3,796.8C30.3,796.8,30.3,796.8,30.3,796.8z"/>
<path d="M75.6,786.2c0,0.6-0.5,1.2-1.2,1.2c-0.4,0-0.8-0.4-0.7-0.8c0,0,0,0,0-0.1c0-0.6,0.5-1.2,1.2-1.2
	C75.3,785.3,75.6,785.7,75.6,786.2C75.6,786.1,75.6,786.2,75.6,786.2z"/>
<path d="M12.6,790c-0.7,0-1.2-0.5-1.3-1.2c-0.1-0.4,0.2-0.8,0.6-0.8c0,0,0.1,0,0.1,0c0.6,0,1.2,0.6,1.2,1.2c0.1,0.4-0.2,0.7-0.5,0.8
	C12.7,790,12.6,790,12.6,790z"/>
<path d="M27.7,794c0.4,0,0.8,0.4,0.8,0.8c0,0,0,0,0,0c0,0.6-0.4,1-0.9,1.1c0,0,0,0,0,0c-0.4,0-0.8-0.3-0.8-0.7c0,0,0-0.1,0-0.1
	C26.8,794.6,27.2,794.1,27.7,794z"/>
<path d="M59.9,795.5c0.6,0.1,1,0.5,1,1.1c0,0.5-0.3,0.9-0.8,0.9c0,0,0,0,0,0c-0.5-0.1-0.9-0.5-0.9-1.1
	C59.1,795.9,59.4,795.5,59.9,795.5C59.9,795.5,59.9,795.5,59.9,795.5z"/>
<path d="M74.9,788.8c-0.1-0.6,0.3-1.1,0.9-1.2c0.4,0,0.7,0.3,0.7,0.6c0,0,0,0.1,0,0.1c0,0.6-0.4,1-0.9,1.1
	C75.2,789.5,74.9,789.2,74.9,788.8z"/>
<path d="M12.5,791.8c-0.2,0.2-0.4,0.4-0.7,0.5c-0.6,0-1-0.4-1.1-1c0-0.4,0.3-0.7,0.6-0.7c0,0,0.1,0,0.1,0
	C12.1,790.6,12.5,791.2,12.5,791.8z"/>
</svg>
