<?xml version="1.0" encoding="utf-8"?>
<!-- Generator: Adobe Illustrator 16.0.0, SVG Export Plug-In . SVG Version: 6.00 Build 0)  -->
<!DOCTYPE svg PUBLIC "-//W3C//DTD SVG 1.1//EN" "http://www.w3.org/Graphics/SVG/1.1/DTD/svg11.dtd">
<svg version="1.1" id="Layer_1" xmlns="http://www.w3.org/2000/svg" xmlns:xlink="http://www.w3.org/1999/xlink" x="0px" y="0px"
	 width="60.508px" height="115.365px" viewBox="0 -19.751 60.508 115.365" enable-background="new 0 -19.751 60.508 115.365"
	 xml:space="preserve">
<g>
	<defs>
		<rect id="SVGID_1_" x="28.254" y="59.614" width="4" height="36"/>
	</defs>
	<clipPath id="SVGID_2_">
		<use xlink:href="#SVGID_1_"  overflow="visible"/>
	</clipPath>
	<line clip-path="url(#SVGID_2_)" fill="none" stroke="#210000" x1="30.254" y1="93.614" x2="30.254" y2="59.614"/>
</g>
<rect x="28.254" y="91.614" fill="#210000" width="4" height="4"/>
<g>
	<defs>
		<polygon id="SVGID_3_" points="26.238,0.105 30.253,-19.588 34.27,0.105 		"/>
	</defs>
	<clipPath id="SVGID_4_">
		<use xlink:href="#SVGID_3_"  overflow="visible"/>
	</clipPath>
	
		<linearGradient id="SVGID_5_" gradientUnits="userSpaceOnUse" x1="-34.2983" y1="91.3184" x2="-33.2983" y2="91.3184" gradientTransform="matrix(-13.8637 13.8637 13.8637 13.8637 -1704.3162 -807.173)">
		<stop  offset="0" style="stop-color:#898452"/>
		<stop  offset="0.0219" style="stop-color:#898452"/>
		<stop  offset="0.6512" style="stop-color:#F4EEC9"/>
		<stop  offset="1" style="stop-color:#D1C778"/>
	</linearGradient>
	<polygon clip-path="url(#SVGID_4_)" fill="url(#SVGID_5_)" points="44.117,-9.741 30.253,4.121 16.392,-9.741 30.253,-23.604 	"/>
</g>
<g>
	<defs>
		<rect id="SVGID_6_" x="-0.246" y="-0.851" width="61" height="78.522"/>
	</defs>
	<clipPath id="SVGID_7_">
		<use xlink:href="#SVGID_6_"  overflow="visible"/>
	</clipPath>
	<path clip-path="url(#SVGID_7_)" fill="none" d="M30.254,57.651c15.463,0,28-12.537,28-28.002s-12.537-28-28-28
		c-15.465,0-28,12.536-28,28S14.79,57.651,30.254,57.651"/>
	
		<linearGradient id="SVGID_8_" gradientUnits="userSpaceOnUse" x1="-32.8213" y1="94.6162" x2="-31.8213" y2="94.6162" gradientTransform="matrix(59 -59 -59 -59 7519.5527 3705.0679)">
		<stop  offset="0" style="stop-color:#898452"/>
		<stop  offset="0.0219" style="stop-color:#898452"/>
		<stop  offset="0.6512" style="stop-color:#F4EEC9"/>
		<stop  offset="1" style="stop-color:#D1C778"/>
	</linearGradient>
	<path clip-path="url(#SVGID_7_)" fill="url(#SVGID_8_)" d="M30.254,57.651v-2c14.358-0.027,25.974-11.643,26-26.002
		c-0.026-14.359-11.642-25.975-26-26c-14.359,0.026-25.975,11.641-26,26c0.026,14.359,11.641,25.975,26,26.002V57.651v2
		c-16.57-0.002-29.999-13.432-30-30.002l0,0c0.001-16.57,13.43-29.999,30-30c16.568,0.001,29.998,13.431,30,30
		c-0.002,16.57-13.432,30-30,30.002V57.651z"/>
</g>
<path d="M13.358,34.543c0.951-6.323,4.227-11.762,6.604-17.553c1.213-2.953,3.379-4.812,5.742-6.634
	c0.663-0.51,1.305-0.477,1.936-0.023c1.115,0.801,2.24,1.592,3.298,2.465c1.17,0.963,1.175,1.17,0.558,2.57
	c-0.08,0.182-0.145,0.371,0.004,0.54c0.08,0.506,0.366,1.112,0.182,1.489c-0.193,0.396-0.821,0.604-1.291,0.83
	c-0.383,0.186-0.832,0.232-1.219,0.414c-1.103,0.518-2.192,0.945-3.472,0.715c-0.29-0.053-0.806,0.306-0.983,0.611
	c-1.39,2.389-2.123,4.99-2.062,7.754c0.054,2.475,0.259,4.946,0.429,7.419c0.018,0.262,0.193,0.586,0.4,0.729
	c0.111,0.078,0.496-0.11,0.673-0.272c3.269-2.984,6.858-3.451,10.759-1.381c0.084,0.045,0.18,0.072,0.32,0.129
	c1.195-1.427,2.664-2.441,4.568-2.605c3.418-0.292,6.324,1.846,7.131,5.186c0.053,0.217,0.145,0.424,0.217,0.637
	c0,0.604,0,1.207,0,1.812c-0.055,0.119-0.137,0.231-0.164,0.358c-0.746,3.48-3.166,5.58-6.686,5.634
	c-5.791,0.086-11.604,0.364-17.347-0.601c-2.616-0.438-5.19-1.207-7.731-1.992c-1.399-0.43-1.527-1.01-1.515-2.453
	c0.009-1.053-0.224-2.105-0.349-3.159C13.358,36.287,13.358,35.415,13.358,34.543z"/>
</svg>
