<svg id="Layer_2" data-name="Layer 2" xmlns="http://www.w3.org/2000/svg" xmlns:xlink="http://www.w3.org/1999/xlink" viewBox="0 0 160 160"><defs><style>.cls-1{fill:none;stroke-miterlimit:10;stroke-width:9px;stroke:url(#linear-gradient);}</style><linearGradient id="linear-gradient" x1="27.3" y1="132.45" x2="132.47" y2="27.28" gradientUnits="userSpaceOnUse"><stop offset="0" stop-color="#707070"/><stop offset="0.5" stop-color="#ebebeb"/><stop offset="1" stop-color="#919394"/></linearGradient></defs><title>МШ Иконки cs6 </title><circle class="cls-1" cx="79.89" cy="79.86" r="69.87"/><path d="M115.9,41.3h-9.65L99,34a2.19,2.19,0,0,0-.24-.2.82.82,0,0,0-.19-.1s0,0,0,0a1,1,0,0,0-.32-.12,1.26,1.26,0,0,0-.35,0H65.37a1.41,1.41,0,0,0-.67.16.82.82,0,0,0-.21.11,2.19,2.19,0,0,0-.24.2h0L57,41.3H47.34a1.59,1.59,0,0,0-1.6,1.6v82.28a1.6,1.6,0,0,0,1.6,1.6H115.9a1.61,1.61,0,0,0,1.6-1.6V42.89A1.6,1.6,0,0,0,115.9,41.3Zm-12.54,1.62-14,14-5.5-5.49,14-14Zm-38-5.5,14,14-5.5,5.49-14-14ZM80,123.58H48.93V44.49h8L72.75,60.32a1.61,1.61,0,0,0,1.13.47A1.59,1.59,0,0,0,75,60.32l5-5ZM69.22,36.76H94L81.62,49.16Zm45.08,86.82H83.22V55.31l5,5a1.59,1.59,0,0,0,1.13.47,1.62,1.62,0,0,0,1.13-.47L106.3,44.49h8Z"/><path d="M74.88,72.78a1.63,1.63,0,0,1-1.14-.47,1.62,1.62,0,0,1,0-2.25A1.66,1.66,0,0,1,76,70a1.6,1.6,0,0,1,.48,1.14,1.6,1.6,0,0,1-1.59,1.59Z"/><path d="M74.87,94.34a1.58,1.58,0,0,1-1.58-1.59A1.59,1.59,0,0,1,76,91.62a1.61,1.61,0,0,1,.47,1.13,1.59,1.59,0,0,1-1.61,1.59Z"/><path d="M74.88,115.91a1.62,1.62,0,0,1-1.14-.47,1.65,1.65,0,0,1-.46-1.13,1.62,1.62,0,0,1,.46-1.13,1.66,1.66,0,0,1,2.26,0,1.59,1.59,0,0,1,0,2.25A1.64,1.64,0,0,1,74.88,115.91Z"/><path d="M106.5,87.24H91a1.6,1.6,0,0,1-1.6-1.6V68.37a1.6,1.6,0,0,1,1.6-1.6h15.5a1.6,1.6,0,0,1,1.6,1.6V85.65A1.6,1.6,0,0,1,106.5,87.24ZM92.6,84.05h12.31V70H92.6Z"/></svg>