<svg id="Layer_2" data-name="Layer 2" xmlns="http://www.w3.org/2000/svg" xmlns:xlink="http://www.w3.org/1999/xlink" viewBox="0 0 160 160"><defs><style>.cls-1,.cls-4,.cls-7{fill:none;}.cls-2{fill:#fff;}.cls-3{clip-path:url(#clip-path);}.cls-4,.cls-5{stroke:#000;}.cls-4,.cls-5,.cls-7{stroke-miterlimit:10;}.cls-5{fill:url(#Безымянный_градиент_9);}.cls-6{clip-path:url(#clip-path-2);}.cls-7{stroke-width:8px;stroke:url(#linear-gradient);}</style><clipPath id="clip-path"><circle class="cls-1" cx="79.45" cy="79.86" r="69.87"/></clipPath><linearGradient id="Безымянный_градиент_9" x1="31.71" y1="42.08" x2="60.95" y2="71.33" gradientUnits="userSpaceOnUse"><stop offset="0" stop-color="#cbc38c"/><stop offset="0.49" stop-color="#ebe8a9"/><stop offset="1" stop-color="#8e8c60"/></linearGradient><clipPath id="clip-path-2"><circle class="cls-1" cx="46.33" cy="56.71" r="20.68"/></clipPath><linearGradient id="linear-gradient" x1="27.21" y1="132.1" x2="131.68" y2="27.63" gradientUnits="userSpaceOnUse"><stop offset="0" stop-color="#707070"/><stop offset="0.5" stop-color="#ebebeb"/><stop offset="1" stop-color="#919394"/></linearGradient></defs><title>МШ Иконки cs6 </title><circle class="cls-2" cx="79.45" cy="79.86" r="69.87"/><g class="cls-3"><path d="M72.17,114.83c5.33,9.08,7.55,21.69,7.83,36.5L60.67,153c5.47-13,9-25.72,9.67-38.17Z"/><path d="M70.33,110.16c0-5-4.33-25.33,0-27.33,13.54-.6,26-5.37,36.67-16.83,5.77,6.83,9.86,14,8.5,22.08L113.33,109l3.33,1.17c9.17-11.5,16.55-16.67,16-32.17-.17-11.83-4.16-33.79-21-29.17C103.46,34,89,36.69,73.33,42.66,61.59,49.38,54.71,59.79,52.17,73.5,51.44,88,55.63,100.57,67.5,110.16Z"/><path d="M116,114.73c2,7,1.1,19,0,31.33,0,0-15.5,3.17-15.5,3.67s12.33-26.83,11.5-35Z"/><path class="cls-4" d="M67.83,98.25c3.42,13.92,12.77,23.87,21.43,28.47a6.34,6.34,0,0,0,6.22-.19,47.73,47.73,0,0,0,20.77-29"/><path class="cls-4" d="M104.47,119.13a35.39,35.39,0,0,0,0,19"/><path class="cls-4" d="M80,119.78a40.28,40.28,0,0,1-.55,21.36"/><circle class="cls-4" cx="69.51" cy="112.67" r="2.92"/><circle class="cls-4" cx="114.11" cy="112.13" r="2.92"/><circle class="cls-5" cx="46.33" cy="56.71" r="20.68"/><g class="cls-6"><path d="M36.38,51.7c-1.62-7.25.52-10.53,4.93-11.4,4.94-2.31,9.68-2.56,14,1.86,2,2.11,1.62,4.88,1.22,9.54H55.22s-.26,3.78-.38,3.39-.51-4-.51-4c-6.88-.18-11.09-2.63-13.52-6.6a9.71,9.71,0,0,1-2.11,6.34s.06,4.79-.06,4.25-.9-3.61-.9-3.61Z"/><path d="M47.34,65.68l-.4,0C42.83,65.94,40,62,37.83,58c-1.39-1.32-2.8-2.87-2.75-4.4a2.83,2.83,0,0,1,1.18-2.08l.24.3a2.43,2.43,0,0,0-1,1.8c0,1.39,1.39,2.94,2.65,4.13l0,0c2.14,3.84,4.86,7.73,8.79,7.46,3,.23,5.69-2.25,8.36-7.58l0,0c1.54-1.65,2.26-3,2.15-4.12a2.31,2.31,0,0,0-1.1-1.67l.22-.31a2.71,2.71,0,0,1,1.26,1.95c.13,1.22-.61,2.66-2.23,4.4C53,63.12,50.29,65.68,47.34,65.68Z"/><path d="M31.84,71.94a38.19,38.19,0,0,1,3.44-3.14l6.36-2.31V63.12L44.29,65l2.66.45,2.93-.68,1.63-1.22v2.55L60.85,70l2.56,2.88L59.7,78.47,41.77,80Z"/></g></g><circle class="cls-7" cx="79.45" cy="79.86" r="69.87"/></svg>